<?xml version="1.0" encoding="UTF-8"?>
<svg version="1.1" xmlns="http://www.w3.org/2000/svg" width="181" height="190">
<path d="M0 0 C59.73 0 119.46 0 181 0 C181 62.7 181 125.4 181 190 C121.27 190 61.54 190 0 190 C0 127.3 0 64.6 0 0 Z " fill="#263071" transform="translate(0,0)"/>
<path d="M0 0 C1.36753418 0.00519653 1.36753418 0.00519653 2.76269531 0.01049805 C10.4231104 0.13276746 17.36418033 1.19661592 24.75 3.3125 C25.51699219 3.50585938 26.28398438 3.69921875 27.07421875 3.8984375 C48.88437588 10.10687409 66.55413536 27.17118303 77.75 46.3125 C79.66736956 50.23369875 81.26236212 54.21086985 82.75 58.3125 C83.1315625 59.34890625 83.513125 60.3853125 83.90625 61.453125 C85.89074304 67.09475521 87.41592532 72.3436991 87.75 78.3125 C87.87117187 79.1684375 87.99234375 80.024375 88.1171875 80.90625 C89.01808874 91.06186398 84.1229724 98.14497678 78.75 106.3125 C78.09257812 107.31667969 77.43515625 108.32085937 76.7578125 109.35546875 C68.0989038 121.80489557 58.32529686 131.0061855 45.75 139.3125 C44.76 139.9725 43.77 140.6325 42.75 141.3125 C41.76 141.3125 40.77 141.3125 39.75 141.3125 C39.75 141.9725 39.75 142.6325 39.75 143.3125 C17.51118279 152.85453893 -6.54987055 155.73645525 -29.84375 148.140625 C-34.9962318 146.07453081 -39.91279135 143.80636252 -44.25 140.3125 C-44.25 139.6525 -44.25 138.9925 -44.25 138.3125 C-44.83910156 138.05210937 -45.42820312 137.79171875 -46.03515625 137.5234375 C-54.55148334 132.86724456 -58.2295974 123.07701252 -60.8671875 114.24609375 C-62.55195573 105.73629505 -61.07224814 97.59139234 -56.3125 90.375 C-52.98860006 87.05110006 -51.14000784 86.44381263 -46.4375 85.75 C-42.75718391 85.83942824 -41.0305596 86.92608351 -38.375 89.4375 C-35.64026182 92.49617072 -34.14126026 95.25231438 -33.25 99.3125 C-32.59 99.3125 -31.93 99.3125 -31.25 99.3125 C-31.745 95.8475 -31.745 95.8475 -32.25 92.3125 C-27.91555582 94.09121359 -26.25599602 96.84467569 -23.71484375 100.6328125 C-23.23144531 101.18710938 -22.74804688 101.74140625 -22.25 102.3125 C-21.26 102.3125 -20.27 102.3125 -19.25 102.3125 C-18.755 100.8275 -18.755 100.8275 -18.25 99.3125 C-17.26 99.3125 -16.27 99.3125 -15.25 99.3125 C-13.42578125 101.8671875 -13.42578125 101.8671875 -11.5625 105.1875 C-10.93988281 106.27804688 -10.31726563 107.36859375 -9.67578125 108.4921875 C-8.25 111.3125 -8.25 111.3125 -8.25 113.3125 C-6.93 113.3125 -5.61 113.3125 -4.25 113.3125 C-1.95950107 100.86495256 -2.29764314 89.25032134 -9.50195312 78.43261719 C-13.54487692 72.78332775 -17.63208116 67.46315062 -23.25 63.3125 C-23.25 62.6525 -23.25 61.9925 -23.25 61.3125 C-23.75015625 61.07402344 -24.2503125 60.83554688 -24.765625 60.58984375 C-26.82176399 59.53267795 -28.80166796 58.41881296 -30.796875 57.25390625 C-44.68046617 49.30330296 -57.23813427 47.10760977 -73.25 46.3125 C-70.06283699 38.97283133 -66.20257083 32.75259785 -60.25 27.3125 C-59.59 27.3125 -58.93 27.3125 -58.25 27.3125 C-57.99734375 26.72984375 -57.7446875 26.1471875 -57.484375 25.546875 C-50.89959617 13.62759181 -32.6585236 6.07001067 -20.25 2.3125 C-13.47291442 0.61676107 -6.97575267 -0.04364731 0 0 Z " fill="#ADE2F9" transform="translate(88.25,3.6875)"/>
<path d="M0 0 C59.73 0 119.46 0 181 0 C181 62.7 181 125.4 181 190 C154.27 190 127.54 190 100 190 C100 189.67 100 189.34 100 189 C100.81082031 188.82984375 101.62164062 188.6596875 102.45703125 188.484375 C118.46365477 184.98117916 133.61781057 179.40300303 146.109375 168.50390625 C148 167 148 167 150 167 C150.23589844 166.44828125 150.47179687 165.8965625 150.71484375 165.328125 C152.31854546 162.42293892 154.35244232 160.22637136 156.5625 157.75 C175.71917622 135.37430239 179.72499225 108.71249597 178 80 C177.34949293 74.41022612 175.92292089 69.29552045 174 64 C173.57589844 62.81921875 173.15179688 61.6384375 172.71484375 60.421875 C164.45283787 39.52521388 150.17475292 23.52142935 131 12 C129.90558594 11.30197266 129.90558594 11.30197266 128.7890625 10.58984375 C112.60230619 0.75142495 88.5310512 -1.06332281 70.23046875 2.8359375 C66.33890081 3.88709199 62.68524167 5.36519355 59 7 C58.32404785 7.29471191 57.6480957 7.58942383 56.95166016 7.89306641 C45.81335468 12.82717408 36.35127592 19.00631824 28 28 C27.00226562 29.02480469 27.00226562 29.02480469 25.984375 30.0703125 C11.05534339 45.86258743 4.82172809 64.11538002 1 85 C0.67 85 0.34 85 0 85 C0 56.95 0 28.9 0 0 Z " fill="#FBFBFC" transform="translate(0,0)"/>
<path d="M0 0 C0.33 0 0.66 0 1 0 C1.14695313 1.02996094 1.29390625 2.05992188 1.4453125 3.12109375 C4.93337169 25.91100796 13.48983774 43.97553196 29 61 C29.64453125 61.75023437 30.2890625 62.50046875 30.953125 63.2734375 C42.46016912 75.93118604 61.31053491 83.67310342 78 86 C78 86.33 78 86.66 78 87 C52.26 87 26.52 87 0 87 C0 58.29 0 29.58 0 0 Z " fill="#FBFBFC" transform="translate(0,103)"/>
<path d="M0 0 C0.33 0.99 0.66 1.98 1 3 C1.66 3.33 2.32 3.66 3 4 C2.01 4.495 2.01 4.495 1 5 C0.34 4.67 -0.32 4.34 -1 4 C-0.67 2.68 -0.34 1.36 0 0 Z M128 -37 C128.33 -37 128.66 -37 129 -37 C130.75242571 -25.57678057 126.03507098 -18.17398762 120 -9 C119.34257812 -7.99582031 118.68515625 -6.99164063 118.0078125 -5.95703125 C109.3489038 6.49239557 99.57529686 15.6936855 87 24 C86.01 24.66 85.02 25.32 84 26 C83.01 26 82.02 26 81 26 C81 26.66 81 27.32 81 28 C58.76118279 37.54203893 34.70012945 40.42395525 11.40625 32.828125 C6.2537682 30.76203081 1.33720865 28.49386252 -3 25 C-3 24.34 -3 23.68 -3 23 C-3.58910156 22.73960937 -4.17820312 22.47921875 -4.78515625 22.2109375 C-13.32739727 17.54057645 -16.89909666 7.78552633 -19.62890625 -1.03125 C-20.08861126 -3.47010604 -20.09513148 -5.77000736 -20.0625 -8.25 C-20.05347656 -9.14203125 -20.04445313 -10.0340625 -20.03515625 -10.953125 C-20.02355469 -11.62859375 -20.01195313 -12.3040625 -20 -13 C-19.67 -13 -19.34 -13 -19 -13 C-18.67 -11.02 -18.34 -9.04 -18 -7 C-17.34 -7 -16.68 -7 -16 -7 C-15.67 -5.741875 -15.34 -4.48375 -15 -3.1875 C-13.25722903 2.13342392 -10.24387189 6.12662343 -6.83984375 10.51953125 C-5 13 -5 13 -3.8984375 15.26171875 C-2.56991483 17.83212132 -0.65824504 18.01088557 2 19 C2.75796875 19.62648437 3.5159375 20.25296875 4.296875 20.8984375 C7.10698428 23.08317564 9.64116768 24.30986098 12.9375 25.625 C13.93652344 26.02976563 14.93554688 26.43453125 15.96484375 26.8515625 C17.46724609 27.42003906 17.46724609 27.42003906 19 28 C19.86367187 28.37253906 20.72734375 28.74507813 21.6171875 29.12890625 C26.78766715 30.46033461 31.87064845 30.32818393 37.1875 30.3125 C38.26064453 30.32861328 39.33378906 30.34472656 40.43945312 30.36132812 C47.40360044 30.36554116 54.61981143 30.07242539 61 27 C62.3350619 24.99321329 62.3350619 24.99321329 63 23 C60.34687715 23.98544563 57.97790559 25.01359656 55.5625 26.5 C49.95645627 29.78158657 44.89482183 30.31718644 38.5625 30.25 C37.83740234 30.25773437 37.11230469 30.26546875 36.36523438 30.2734375 C31.55193961 30.25613905 27.56870759 29.51688315 23 28 C26.28976808 26.90341064 27.71303767 27.20046862 31 28 C31 27.34 31 26.68 31 26 C29.68 25.67 28.36 25.34 27 25 C27.495 24.01 27.495 24.01 28 23 C30.94140625 22.5859375 30.94140625 22.5859375 34.5625 22.375 C35.76003906 22.30023438 36.95757812 22.22546875 38.19140625 22.1484375 C39.11824219 22.09945312 40.04507813 22.05046875 41 22 C41 21.34 41 20.68 41 20 C35.06 20 29.12 20 23 20 C23 19.34 23 18.68 23 18 C22.30519531 17.89816406 21.61039063 17.79632813 20.89453125 17.69140625 C17.50947448 16.88282994 14.77712981 15.53324287 11.6875 13.9375 C10.08455078 13.11572266 10.08455078 13.11572266 8.44921875 12.27734375 C7.64097656 11.85582031 6.83273438 11.43429688 6 11 C6 11.99 6 12.98 6 14 C6.5775 14.268125 7.155 14.53625 7.75 14.8125 C10 16 10 16 11.8125 17.5625 C14.07545414 19.28193018 14.07545414 19.28193018 17.625 19.4375 C19.295625 19.7159375 19.295625 19.7159375 21 20 C22.3125 22 22.3125 22 23 24 C23.99 24.495 23.99 24.495 25 25 C21.28655354 25.81695822 18.75758055 26.26350628 15.125 25 C8.36900958 20.67616613 0.76416452 15.56196245 -4 9 C-4.4375 5.5625 -4.4375 5.5625 -4 3 C-4.66 3 -5.32 3 -6 3 C-6 2.34 -6 1.68 -6 1 C-5.01 1 -4.02 1 -3 1 C-2.34 2.98 -1.68 4.96 -1 7 C-0.34 6.34 0.32 5.68 1 5 C1 5.66 1 6.32 1 7 C1.969375 7.144375 2.93875 7.28875 3.9375 7.4375 C4.88496094 7.58058594 4.88496094 7.58058594 5.8515625 7.7265625 C7.3615171 7.91873854 8.87920939 8.05441361 10.3984375 8.1484375 C11.19507812 8.20257813 11.99171875 8.25671875 12.8125 8.3125 C13.56144531 8.34988281 14.31039062 8.38726562 15.08203125 8.42578125 C17 9 17 9 18.07421875 10.98046875 C18.37972656 11.64691406 18.68523437 12.31335938 19 13 C19.99 13.33 20.98 13.66 22 14 C22.33 12.35 22.66 10.7 23 9 C25.475 8.505 25.475 8.505 28 8 C28.33 8.99 28.66 9.98 29 11 C28.01 11.99 27.02 12.98 26 14 C27.98 13.01 29.96 12.02 32 11 C32.53560547 11.96679688 32.53560547 11.96679688 33.08203125 12.953125 C35.78906891 15.84210206 37.80046879 15.59605817 41.6875 15.75 C42.86699219 15.80671875 44.04648438 15.8634375 45.26171875 15.921875 C46.16535156 15.94765625 47.06898437 15.9734375 48 16 C48.14308594 16.60328125 48.28617187 17.2065625 48.43359375 17.828125 C49.08324972 20.3192196 50.01075499 22.62581198 51 25 C52.3303125 24.071875 52.3303125 24.071875 53.6875 23.125 C56.46061184 21.34602259 58.9140354 20.08916398 62 19 C63.37562854 20.28965176 64.70766393 21.62689293 66 23 C66 23.66 66 24.32 66 25 C70.95 24.67 75.9 24.34 81 24 C81 22.68 81 21.36 81 20 C81.66 20 82.32 20 83 20 C83.495 19.01 83.495 19.01 84 18 C86.32156597 17.59270772 88.6568787 17.25561323 91 17 C91.33 16.01 91.66 15.02 92 14 C92.99 14 93.98 14 95 14 C93.68 13.34 92.36 12.68 91 12 C91.66 11.01 92.32 10.02 93 9 C94.485 9.495 94.485 9.495 96 10 C96.66 8.68 97.32 7.36 98 6 C99.32 6.66 100.64 7.32 102 8 C103.85100677 5.82707901 104.92736667 4.40467142 105.4375 1.5625 C106.17447488 -1.79483 107.62508645 -3.55523605 110 -6 C110.99 -6 111.98 -6 113 -6 C113 -7.98 113 -9.96 113 -12 C113.99 -12 114.98 -12 116 -12 C116.99 -13.485 116.99 -13.485 118 -15 C118.66 -15 119.32 -15 120 -15 C119.01 -16.98 119.01 -16.98 118 -19 C118.99 -19.495 118.99 -19.495 120 -20 C120.66 -19.67 121.32 -19.34 122 -19 C122.99 -21.97 123.98 -24.94 125 -28 C125.66 -28 126.32 -28 127 -28 C127.33 -30.97 127.66 -33.94 128 -37 Z " fill="#2EBBE7" transform="translate(47,119)"/>
<path d="M0 0 C4.84057471 3.30598938 7.7319867 7.22349497 9 13 C9.66 13 10.32 13 11 13 C10.67 10.69 10.34 8.38 10 6 C14.33444418 7.77871359 15.99400398 10.53217569 18.53515625 14.3203125 C19.26025391 15.15175781 19.26025391 15.15175781 20 16 C20.99 16 21.98 16 23 16 C23.33 15.01 23.66 14.02 24 13 C24.99 13 25.98 13 27 13 C28.82421875 15.5546875 28.82421875 15.5546875 30.6875 18.875 C31.31011719 19.96554688 31.93273437 21.05609375 32.57421875 22.1796875 C34 25 34 25 34 27 C35.32 27 36.64 27 38 27 C38.66 21.39 39.32 15.78 40 10 C40.33 10 40.66 10 41 10 C41.495 15.445 41.495 15.445 42 21 C42.99 21.33 43.98 21.66 45 22 C44.75 23.875 44.75 23.875 44 26 C42 27.125 42 27.125 40 28 C39.67 28.66 39.34 29.32 39 30 C36.125 30.125 36.125 30.125 33 30 C32.34 29.34 31.68 28.68 31 28 C30.01 28.33 29.02 28.66 28 29 C26.90341064 25.71023192 27.20046862 24.28696233 28 21 C27.13375 21.29390625 27.13375 21.29390625 26.25 21.59375 C22.96713087 22.18649026 20.95855203 20.93434389 18 19.59375 C15.62276961 18.88800973 14.31716216 19.21381998 12 20 C12 19.34 12 18.68 12 18 C10.35 18.33 8.7 18.66 7 19 C2.07692308 13.83076923 2.07692308 13.83076923 1.6875 9.625 C1.790625 8.75875 1.89375 7.8925 2 7 C1.34 7 0.68 7 0 7 C-0.33 7.99 -0.66 8.98 -1 10 C-1.66 8.68 -2.32 7.36 -3 6 C-4.20628008 8.33214148 -5.1654738 10.49642139 -6 13 C-6.66 13 -7.32 13 -8 13 C-8.66 12.34 -9.32 11.68 -10 11 C-11.28485606 14.28704716 -11.28485606 14.28704716 -12 18 C-10.77661725 20.44146006 -10.77661725 20.44146006 -9 22 C-8.34 21.34 -7.68 20.68 -7 20 C-7 21.32 -7 22.64 -7 24 C-6.01 23.67 -5.02 23.34 -4 23 C-3.67 23.66 -3.34 24.32 -3 25 C-3.66 25.66 -4.32 26.32 -5 27 C-5.16687448 29.58354218 -5.16687448 29.58354218 -5 32 C-4.34 32 -3.68 32 -3 32 C-2.835 32.99 -2.67 33.98 -2.5 35 C-0.28748818 42.65869476 7.4541142 47.78657431 13.88671875 51.875 C16.59299405 53.3156789 18.93693643 53.92529113 22 54 C22.66 53.67 23.32 53.34 24 53 C23.34 52.01 22.68 51.02 22 50 C20.96875 49.896875 19.9375 49.79375 18.875 49.6875 C13.93779384 48.81154407 10.47163347 46.62492637 7 43 C7 42.01 7 41.02 7 40 C11.23322844 40.62045463 14.52290295 42.10523559 18.3125 44.0625 C19.91544922 44.88427734 19.91544922 44.88427734 21.55078125 45.72265625 C22.35902344 46.14417969 23.16726562 46.56570312 24 47 C24 47.66 24 48.32 24 49 C29.94 49 35.88 49 42 49 C42 49.66 42 50.32 42 51 C35.565 51.495 35.565 51.495 29 52 C29 52.66 29 53.32 29 54 C29.99 54.33 30.98 54.66 32 55 C32 55.66 32 56.32 32 57 C30.02 57 28.04 57 26 57 C36.28191354 59.48462744 48.74509081 59.54889522 58 54 C58.99 53.01 58.99 53.01 60 52 C61.32 52 62.64 52 64 52 C63.73828125 53.89453125 63.73828125 53.89453125 63 56 C61.29296875 57.01171875 61.29296875 57.01171875 59.1875 57.6875 C58.15689453 58.03361328 58.15689453 58.03361328 57.10546875 58.38671875 C41.75990456 62.85657697 24.09949291 61.48767224 10 54 C7.97561984 52.70398197 5.97470203 51.37052168 4 50 C2.98164062 49.37609375 1.96328125 48.7521875 0.9140625 48.109375 C-6.29732304 42.88933721 -11.64176273 34.1765777 -15 26 C-15 24.68 -15 23.36 -15 22 C-15.99 22.33 -16.98 22.66 -18 23 C-18.47478742 15.8254346 -18.47652609 9.90845835 -14 4 C-9.87877702 0.25343366 -5.51537048 -1.58341079 0 0 Z " fill="#8DCFF1" transform="translate(46,90)"/>
<path d="M0 0 C2.51431659 1.95910472 4.91301762 3.99267831 7.2890625 6.1171875 C8.12179688 6.85582031 8.95453125 7.59445313 9.8125 8.35546875 C24.90486766 22.54229435 37.67382122 45.49614795 38.40258789 66.36865234 C38.39735107 67.51027832 38.39211426 68.6519043 38.38671875 69.828125 C38.38349609 71.07207031 38.38027344 72.31601563 38.37695312 73.59765625 C38.36857422 74.88285156 38.36019531 76.16804688 38.3515625 77.4921875 C38.34705078 78.80058594 38.34253906 80.10898438 38.33789062 81.45703125 C38.32613844 84.67713031 38.30970793 87.8971352 38.2890625 91.1171875 C36.22821351 87.67632442 35.91975144 84.73408399 35.6484375 80.76171875 C35.55071045 79.5072998 35.4529834 78.25288086 35.35229492 76.96044922 C35.3020517 76.30171814 35.25180847 75.64298706 35.20004272 74.96429443 C34.22156736 62.59747874 32.48749001 51.48475625 27.2890625 40.1171875 C26.83660156 39.05242188 26.38414062 37.98765625 25.91796875 36.890625 C17.04127469 17.42727882 1.94645829 4.63924619 -16.7109375 -4.8828125 C-17.73574219 -5.42679688 -18.76054688 -5.97078125 -19.81640625 -6.53125 C-22.75272698 -7.90232554 -25.5005952 -8.75497768 -28.6484375 -9.5078125 C-29.62683594 -9.74757813 -30.60523437 -9.98734375 -31.61328125 -10.234375 C-55.72591679 -15.28191283 -77.4149669 -10.90434985 -97.984375 2.203125 C-103.04351017 5.74316328 -106.93746209 9.26557626 -110.7109375 14.1171875 C-111.6596875 14.8390625 -112.6084375 15.5609375 -113.5859375 16.3046875 C-118.5974388 20.261821 -121.88853345 26.47237941 -124.7109375 32.1171875 C-120.7509375 32.4471875 -116.7909375 32.7771875 -112.7109375 33.1171875 C-112.7109375 33.4471875 -112.7109375 33.7771875 -112.7109375 34.1171875 C-120.6309375 34.6121875 -120.6309375 34.6121875 -128.7109375 35.1171875 C-128.7109375 24.99539401 -117.64167862 14.16206095 -110.7109375 7.1171875 C-102.23190226 -0.86501854 -92.34565326 -6.30541898 -81.7109375 -10.8828125 C-80.5146875 -11.41261719 -79.3184375 -11.94242188 -78.0859375 -12.48828125 C-52.30443899 -22.23827592 -22.06985925 -15.32805787 0 0 Z " fill="#3D4764" transform="translate(140.7109375,16.8828125)"/>
<path d="M0 0 C0.33 0.99 0.66 1.98 1 3 C1.66 3.33 2.32 3.66 3 4 C2.01 4.495 2.01 4.495 1 5 C0.34 4.67 -0.32 4.34 -1 4 C-0.67 2.68 -0.34 1.36 0 0 Z M-6 1 C-5.01 1 -4.02 1 -3 1 C-2.34 2.98 -1.68 4.96 -1 7 C-0.34 6.34 0.32 5.68 1 5 C1 5.66 1 6.32 1 7 C1.969375 7.144375 2.93875 7.28875 3.9375 7.4375 C4.88496094 7.58058594 4.88496094 7.58058594 5.8515625 7.7265625 C7.3615171 7.91873854 8.87920939 8.05441361 10.3984375 8.1484375 C11.19507812 8.20257813 11.99171875 8.25671875 12.8125 8.3125 C13.93591797 8.36857422 13.93591797 8.36857422 15.08203125 8.42578125 C17 9 17 9 18.07421875 10.98046875 C18.53248047 11.98013672 18.53248047 11.98013672 19 13 C19.99 13.33 20.98 13.66 22 14 C22.33 12.35 22.66 10.7 23 9 C24.65 8.67 26.3 8.34 28 8 C28.495 9.485 28.495 9.485 29 11 C28.01 11.99 27.02 12.98 26 14 C27.98 13.01 29.96 12.02 32 11 C32.53560547 11.96679688 32.53560547 11.96679688 33.08203125 12.953125 C35.78906891 15.84210206 37.80046879 15.59605817 41.6875 15.75 C42.86699219 15.80671875 44.04648438 15.8634375 45.26171875 15.921875 C46.16535156 15.94765625 47.06898437 15.9734375 48 16 C47.67 17.32 47.34 18.64 47 20 C46.34 20 45.68 20 45 20 C45 20.66 45 21.32 45 22 C41.04 23.32 37.08 24.64 33 26 C33 27.32 33 28.64 33 30 C28.05 29.01 28.05 29.01 23 28 C26.28976808 26.90341064 27.71303767 27.20046862 31 28 C31 27.34 31 26.68 31 26 C29.68 25.67 28.36 25.34 27 25 C27.33 24.34 27.66 23.68 28 23 C30.94140625 22.5859375 30.94140625 22.5859375 34.5625 22.375 C35.76003906 22.30023438 36.95757812 22.22546875 38.19140625 22.1484375 C39.58166016 22.07496094 39.58166016 22.07496094 41 22 C41 21.34 41 20.68 41 20 C35.06 20 29.12 20 23 20 C23 19.34 23 18.68 23 18 C22.30519531 17.89816406 21.61039063 17.79632813 20.89453125 17.69140625 C17.50947448 16.88282994 14.77712981 15.53324287 11.6875 13.9375 C10.61886719 13.38964844 9.55023438 12.84179688 8.44921875 12.27734375 C7.64097656 11.85582031 6.83273438 11.43429688 6 11 C6 11.99 6 12.98 6 14 C6.5775 14.268125 7.155 14.53625 7.75 14.8125 C10 16 10 16 11.8125 17.5625 C14.07545414 19.28193018 14.07545414 19.28193018 17.625 19.4375 C18.73875 19.623125 19.8525 19.80875 21 20 C22.3125 22 22.3125 22 23 24 C23.66 24.33 24.32 24.66 25 25 C21.28655354 25.81695822 18.75758055 26.26350628 15.125 25 C8.36900958 20.67616613 0.76416452 15.56196245 -4 9 C-4.4375 5.5625 -4.4375 5.5625 -4 3 C-4.66 3 -5.32 3 -6 3 C-6 2.34 -6 1.68 -6 1 Z " fill="#54C0E2" transform="translate(47,119)"/>
<path d="M0 0 C0.66 0 1.32 0 2 0 C3.26171875 1.87109375 3.26171875 1.87109375 4.6875 4.4375 C10.93813081 15.14208271 19.01127267 24.89515148 30 31 C34.10939032 32.14570971 34.10939032 32.14570971 38 31 C37.34 30.01 36.68 29.02 36 28 C34.96875 27.896875 33.9375 27.79375 32.875 27.6875 C27.93779384 26.81154407 24.47163347 24.62492637 21 21 C21 20.01 21 19.02 21 18 C25.23322844 18.62045463 28.52290295 20.10523559 32.3125 22.0625 C33.91544922 22.88427734 33.91544922 22.88427734 35.55078125 23.72265625 C36.35902344 24.14417969 37.16726562 24.56570312 38 25 C38 25.66 38 26.32 38 27 C43.94 27 49.88 27 56 27 C56 27.66 56 28.32 56 29 C49.565 29.495 49.565 29.495 43 30 C43 30.66 43 31.32 43 32 C43.99 32.33 44.98 32.66 46 33 C46 33.66 46 34.32 46 35 C44.02 35 42.04 35 40 35 C50.28191354 37.48462744 62.74509081 37.54889522 72 32 C72.66 31.34 73.32 30.68 74 30 C75.32 30 76.64 30 78 30 C77.73828125 31.89453125 77.73828125 31.89453125 77 34 C75.29296875 35.01171875 75.29296875 35.01171875 73.1875 35.6875 C72.15689453 36.03361328 72.15689453 36.03361328 71.10546875 36.38671875 C55.75990456 40.85657697 38.09949291 39.48767224 24 32 C21.97561984 30.70398197 19.97470203 29.37052168 18 28 C16.98292969 27.37996094 15.96585938 26.75992188 14.91796875 26.12109375 C11.65892303 23.75206855 9.66736328 21.32149927 7.3125 18.0625 C6.56613281 17.04285156 5.81976563 16.02320313 5.05078125 14.97265625 C1.31125872 9.55212931 -0.39663761 6.74283933 0 0 Z " fill="#B0F3FA" transform="translate(32,112)"/>
<path d="M0 0 C3.19107378 1.39942386 6.09698808 3.07838454 9 5 C9.928125 4.175 10.85625 3.35 11.8125 2.5 C16.56544711 -0.97180293 21.34702113 -0.46000732 27 0 C27.495 0.99 27.495 0.99 28 2 C27.01 2.33 26.02 2.66 25 3 C24.34 3.99 23.68 4.98 23 6 C22.34 6 21.68 6 21 6 C20.67 8.31 20.34 10.62 20 13 C16.6875 13.6875 16.6875 13.6875 13 14 C11.0625 12.5625 11.0625 12.5625 10 11 C6.88214887 11.64644661 6.88214887 11.64644661 6 14 C6 13.34 6 12.68 6 12 C4.88625 12.2784375 4.88625 12.2784375 3.75 12.5625 C1.05009037 12.99203108 -0.44631077 12.85122974 -3 12 C-3 11.01 -3 10.02 -3 9 C-3.928125 9.495 -3.928125 9.495 -4.875 10 C-7.85625765 11.40294478 -10.72858726 11 -14 11 C-14 9.68 -14 8.36 -14 7 C-14.66 6.67 -15.32 6.34 -16 6 C-16 5.34 -16 4.68 -16 4 C-10.68349333 0.38025078 -6.45608792 -1.29550023 0 0 Z M13 9 C14 12 14 12 14 12 Z " fill="#A1DAF4" transform="translate(116,90)"/>
<path d="M0 0 C0.33 0 0.66 0 1 0 C2.75242571 11.42321943 -1.96492902 18.82601238 -8 28 C-8.65742188 29.00417969 -9.31484375 30.00835937 -9.9921875 31.04296875 C-18.6510962 43.49239557 -28.42470314 52.6936855 -41 61 C-41.99 61.66 -42.98 62.32 -44 63 C-44.99 63 -45.98 63 -47 63 C-47 63.66 -47 64.32 -47 65 C-47.66 65 -48.32 65 -49 65 C-49 64.01 -49 63.02 -49 62 C-47.68 62 -46.36 62 -45 62 C-45 61.34 -45 60.68 -45 60 C-44.34 60 -43.68 60 -43 60 C-43 59.34 -43 58.68 -43 58 C-42.01 58 -41.02 58 -40 58 C-39.67 57.01 -39.34 56.02 -39 55 C-38.34 55 -37.68 55 -37 55 C-36.67 53.68 -36.34 52.36 -36 51 C-35.01 51 -34.02 51 -33 51 C-34.32 50.34 -35.64 49.68 -37 49 C-36.34 48.01 -35.68 47.02 -35 46 C-34.01 46.33 -33.02 46.66 -32 47 C-31.34 45.68 -30.68 44.36 -30 43 C-28.68 43.66 -27.36 44.32 -26 45 C-24.14899323 42.82707901 -23.07263333 41.40467142 -22.5625 38.5625 C-21.82552512 35.20517 -20.37491355 33.44476395 -18 31 C-17.01 31 -16.02 31 -15 31 C-15 29.02 -15 27.04 -15 25 C-14.01 25 -13.02 25 -12 25 C-11.34 24.01 -10.68 23.02 -10 22 C-9.34 22 -8.68 22 -8 22 C-8.66 20.68 -9.32 19.36 -10 18 C-9.34 17.67 -8.68 17.34 -8 17 C-7.34 17.33 -6.68 17.66 -6 18 C-5.01 15.03 -4.02 12.06 -3 9 C-2.34 9 -1.68 9 -1 9 C-0.67 6.03 -0.34 3.06 0 0 Z " fill="#5CC9F4" transform="translate(175,82)"/>
<path d="M0 0 C0.33 0 0.66 0 1 0 C1.33 1.98 1.66 3.96 2 6 C2.66 6 3.32 6 4 6 C4.33 7.258125 4.66 8.51625 5 9.8125 C6.74277097 15.13342392 9.75612811 19.12662343 13.16015625 23.51953125 C15 26 15 26 16.1015625 28.26171875 C17.43008517 30.83212132 19.34175496 31.01088557 22 32 C22.75796875 32.62648437 23.5159375 33.25296875 24.296875 33.8984375 C27.10698428 36.08317564 29.64116768 37.30986098 32.9375 38.625 C33.93652344 39.02976563 34.93554688 39.43453125 35.96484375 39.8515625 C38.95369706 40.98247997 41.96099926 42.01266444 45 43 C45 43.33 45 43.66 45 44 C39.36358323 44.47644352 35.26807226 42.84013804 30.1875 40.6875 C29.41212891 40.37876953 28.63675781 40.07003906 27.83789062 39.75195312 C27.10119141 39.44580078 26.36449219 39.13964844 25.60546875 38.82421875 C24.60229614 38.40789185 24.60229614 38.40789185 23.57885742 37.9831543 C22 37 22 37 21 34 C19.68 34 18.36 34 17 34 C17 34.99 17 35.98 17 37 C7.9401668 30.05566084 2.0440934 21.35607446 0 10 C-0.20670083 6.64685318 -0.19261397 3.35290981 0 0 Z " fill="#4EBDEC" transform="translate(27,106)"/>
<path d="M0 0 C0.33 0.99 0.66 1.98 1 3 C1.66 3.33 2.32 3.66 3 4 C2.01 4.495 2.01 4.495 1 5 C0.34 4.67 -0.32 4.34 -1 4 C-0.67 2.68 -0.34 1.36 0 0 Z M-6 1 C-5.01 1 -4.02 1 -3 1 C-2.34 2.98 -1.68 4.96 -1 7 C-0.34 6.34 0.32 5.68 1 5 C1 5.66 1 6.32 1 7 C6.32212148 7.79265639 11.6496441 8.42978066 17 9 C17.4640625 10.423125 17.4640625 10.423125 17.9375 11.875 C18.87394742 14.86080408 18.87394742 14.86080408 20 17 C15.0276578 15.50829734 10.58154261 13.39542583 6 11 C6 11.99 6 12.98 6 14 C6.5775 14.268125 7.155 14.53625 7.75 14.8125 C10 16 10 16 11.8125 17.5625 C14.07545414 19.28193018 14.07545414 19.28193018 17.625 19.4375 C18.73875 19.623125 19.8525 19.80875 21 20 C22.3125 22 22.3125 22 23 24 C23.66 24.33 24.32 24.66 25 25 C21.28655354 25.81695822 18.75758055 26.26350628 15.125 25 C8.36900958 20.67616613 0.76416452 15.56196245 -4 9 C-4.4375 5.5625 -4.4375 5.5625 -4 3 C-4.66 3 -5.32 3 -6 3 C-6 2.34 -6 1.68 -6 1 Z " fill="#60C0D7" transform="translate(47,119)"/>
<path d="M0 0 C2.31188339 0.30825112 3.62153466 0.56782506 5.18359375 2.3515625 C7.82077024 4.74487106 10.91734724 5.8427135 14.1875 7.125 C14.82236328 7.38925781 15.45722656 7.65351563 16.11132812 7.92578125 C20.75120259 9.77422467 25.02684194 10.54638603 30 11 C30 11.99 30 12.98 30 14 C40.56 14 51.12 14 62 14 C48.57648079 20.7117596 28.28283405 17.35309806 14.40625 12.828125 C9.20816752 10.74374539 4.48188271 8.36141204 0 5 C0.33 4.01 0.66 3.02 1 2 C0.34 1.67 -0.32 1.34 -1 1 C-0.67 0.67 -0.34 0.34 0 0 Z " fill="#2AA7DB" transform="translate(44,139)"/>
<path d="M0 0 C0.66 0.33 1.32 0.66 2 1 C1.91291331 2.45945288 1.80473093 3.91765868 1.6875 5.375 C1.62949219 6.18710937 1.57148438 6.99921875 1.51171875 7.8359375 C1 10 1 10 -2 12 C-1.67 12.99 -1.34 13.98 -1 15 C-1.66 15 -2.32 15 -3 15 C-3.17041128 19.44305876 -3.33060049 23.88634635 -3.48217773 28.33007812 C-3.53485198 29.83505655 -3.59010081 31.33994755 -3.64819336 32.84472656 C-3.991598 41.79116387 -3.99460953 50.43444944 -3.03881836 59.35302734 C-3.0260083 60.22652832 -3.01319824 61.1000293 -3 62 C-3.66 62.66 -4.32 63.32 -5 64 C-9.60984026 42.32277498 -9.87364431 20.43004061 0 0 Z " fill="#3D426E" transform="translate(8,56)"/>
<path d="M0 0 C0.70125 0.721875 1.4025 1.44375 2.125 2.1875 C4.92221154 4.99263565 7.95182409 7.47066255 11 10 C11.61875 10.680625 12.2375 11.36125 12.875 12.0625 C23.93694728 22.14839311 43.28239114 23.19682334 57.5 23.0625 C58.4178125 23.05798828 59.335625 23.05347656 60.28125 23.04882812 C62.52090391 23.03716326 64.76041545 23.02079614 67 23 C66.67 23.66 66.34 24.32 66 25 C61.76829049 25.0999677 57.5372329 25.17197673 53.3046875 25.21972656 C51.86934413 25.23966189 50.43408003 25.26682074 48.99902344 25.30175781 C40.1696373 25.5111017 33.0704502 24.96393847 25 21 C23.845 20.67 22.69 20.34 21.5 20 C16.85616594 18.67319027 12.45759552 16.84761504 8 15 C8 13.35 8 11.7 8 10 C7.0409375 9.8453125 7.0409375 9.8453125 6.0625 9.6875 C5.381875 9.460625 4.70125 9.23375 4 9 C3.67 8.01 3.34 7.02 3 6 C2.01 5.34 1.02 4.68 0 4 C0 2.68 0 1.36 0 0 Z " fill="#064280" transform="translate(33,132)"/>
<path d="M0 0 C1.34245892 2.68491785 1.02549373 5.0850533 0.9375 8.02734375 C0.91266984 10.2147211 0.91266984 10.2147211 2 13 C2 13.66 2 14.32 2 15 C2.63474075 16.34882408 3.29848848 17.6846659 4 19 C4.66 18.34 5.32 17.68 6 17 C6 18.32 6 19.64 6 21 C6.99 20.67 7.98 20.34 9 20 C9.33 20.66 9.66 21.32 10 22 C9.34 22.66 8.68 23.32 8 24 C7.83312552 26.58354218 7.83312552 26.58354218 8 29 C8.66 29 9.32 29 10 29 C9.67 30.32 9.34 31.64 9 33 C8.03576974 31.60823368 7.07888398 30.2113777 6.125 28.8125 C5.59132813 28.03519531 5.05765625 27.25789063 4.5078125 26.45703125 C3.01984561 24.0323391 1.97571922 21.6666501 1 19 C0.34 19 -0.32 19 -1 19 C-1.33 20.32 -1.66 21.64 -2 23 C-2 21.68 -2 20.36 -2 19 C-2.99 19.33 -3.98 19.66 -5 20 C-5.50114838 12.42709109 -4.98565979 7.52198875 -1 1 C-0.67 0.67 -0.34 0.34 0 0 Z " fill="#87D3EB" transform="translate(33,93)"/>
<path d="M0 0 C0.66 0 1.32 0 2 0 C3.26171875 1.87109375 3.26171875 1.87109375 4.6875 4.4375 C9.12023735 12.05492244 14.25919642 18.58821996 20.71484375 24.58984375 C22 26 22 26 22 28 C16.58648306 27.22664044 13.22985333 25.4341479 9.6484375 21.2578125 C8.89820313 20.22398437 8.14796875 19.19015625 7.375 18.125 C6.61960937 17.09632813 5.86421875 16.06765625 5.0859375 15.0078125 C1.31963848 9.5770068 -0.39789729 6.76425396 0 0 Z " fill="#CFF8FC" transform="translate(32,112)"/>
<path d="M0 0 C3.24624919 1.24086699 5.40942268 2.81884535 7 6 C4.0280615 4.87548273 1.66559313 3.77706209 -1 2 C-4.10857 1.76685725 -6.01413769 2.00471256 -9 3 C-9 3.66 -9 4.32 -9 5 C-8.030625 5.12375 -7.06125 5.2475 -6.0625 5.375 C-4.5465625 5.684375 -4.5465625 5.684375 -3 6 C-2.67 6.66 -2.34 7.32 -2 8 C-2.66386719 7.96519531 -3.32773437 7.93039063 -4.01171875 7.89453125 C-9.28058568 7.73300394 -12.62981867 7.722364 -17 11 C-17.66 11 -18.32 11 -19 11 C-18.3125 9.0625 -18.3125 9.0625 -17 7 C-14.375 6.25 -14.375 6.25 -12 6 C-12 5.01 -12 4.02 -12 3 C-20.50064057 7.08030748 -24.73647722 13.29727257 -28 22 C-28.66 22 -29.32 22 -30 22 C-29.68640314 15.88486131 -26.82365943 11.58511623 -23 7 C-15.55268649 0.36788407 -9.99829898 -0.91003935 0 0 Z " fill="#959CCA" transform="translate(48,79)"/>
<path d="M0 0 C3.19107378 1.39942386 6.09698808 3.07838454 9 5 C9.928125 4.175 10.85625 3.35 11.8125 2.5 C16.56544711 -0.97180293 21.34702113 -0.46000732 27 0 C27.495 0.99 27.495 0.99 28 2 C27.34773438 2.02578125 26.69546875 2.0515625 26.0234375 2.078125 C18.86964285 2.54238306 15.12397146 3.87602854 10 9 C7.03448755 8.61399321 4.81309913 7.41498896 2.25 5.9375 C-3.21242855 3.14536645 -7.56398327 3.30399522 -13.5 5 C-14.325 5.33 -15.15 5.66 -16 6 C-16 5.34 -16 4.68 -16 4 C-10.68349333 0.38025078 -6.45608792 -1.29550023 0 0 Z " fill="#1B3E50" transform="translate(116,90)"/>
<path d="M0 0 C0.99261337 0.00222061 1.98522675 0.00444122 3.00791931 0.00672913 C4.12900589 0.00680466 5.25009247 0.00688019 6.40515137 0.00695801 C8.2348069 0.01469994 8.2348069 0.01469994 10.10142517 0.02259827 C11.96377052 0.02472069 11.96377052 0.02472069 13.86373901 0.02688599 C17.16982383 0.03154861 20.47584039 0.04053955 23.78190613 0.05158997 C27.15338042 0.06180625 30.52486175 0.06638407 33.89634705 0.07142639 C40.51550667 0.08248056 47.13463385 0.09923715 53.75376892 0.12025452 C53.42376892 1.11025452 53.09376892 2.10025452 52.75376892 3.12025452 C53.41376892 3.45025452 54.07376892 3.78025452 54.75376892 4.12025452 C51.8788894 5.55769428 50.4016718 4.54944072 47.31626892 3.68275452 C39.84877205 1.99829836 32.58335353 1.77776963 24.94126892 1.74525452 C23.78506042 1.73179993 22.62885193 1.71834534 21.43760681 1.70448303 C15.37749429 1.73546208 10.28323347 2.1640799 4.64952087 4.47718811 C2.75376892 5.12025452 2.75376892 5.12025452 -1.24623108 5.12025452 C-1.90623108 3.80025452 -2.56623108 2.48025452 -3.24623108 1.12025452 C-2.24623108 0.12025452 -2.24623108 0.12025452 0 0 Z " fill="#E5E9F3" transform="translate(63.24623107910156,-0.1202545166015625)"/>
<path d="M0 0 C5.57560464 -0.5108085 9.00216444 1.08971571 13.75 3.6875 C14.42160156 4.02716797 15.09320313 4.36683594 15.78515625 4.71679688 C18.93024003 6.40278868 20.77507601 7.57131422 22.453125 10.76953125 C22.72382813 11.87361328 22.72382813 11.87361328 23 13 C22.401875 12.814375 21.80375 12.62875 21.1875 12.4375 C18.83591238 11.77906313 18.83591238 11.77906313 16 13 C15.34 12.34 14.68 11.68 14 11 C13.01 11 12.02 11 11 11 C11 10.34 11 9.68 11 9 C10.01 9.33 9.02 9.66 8 10 C7.67 8.35 7.34 6.7 7 5 C4.69 5 2.38 5 0 5 C-0.33 4.01 -0.66 3.02 -1 2 C-0.67 1.34 -0.34 0.68 0 0 Z " fill="#E3F1F9" transform="translate(116,10)"/>
<path d="M0 0 C0 0.99 0 1.98 0 3 C-0.969375 3.45375 -1.93875 3.9075 -2.9375 4.375 C-6.07079582 5.65786221 -6.07079582 5.65786221 -7 8 C-5.989375 7.34 -4.97875 6.68 -3.9375 6 C-0.15751566 3.85419071 2.62047095 3.43228327 7 4 C9.9375 5.375 9.9375 5.375 12 7 C12 7.66 12 8.32 12 9 C11.33613281 8.96519531 10.67226563 8.93039063 9.98828125 8.89453125 C2.99062373 8.64917226 2.99062373 8.64917226 -3 12 C-4.36984198 13.29579647 -5.7151049 14.61992749 -7 16 C-6.67 14.02 -6.34 12.04 -6 10 C-7.65 9.67 -9.3 9.34 -11 9 C-8.50649547 4.27546509 -5.71518199 0 0 0 Z " fill="#283B6A" transform="translate(36,82)"/>
<path d="M0 0 C0.6875 1.8125 0.6875 1.8125 1 4 C-0.3125 5.75 -0.3125 5.75 -2 7 C-2.66 7 -3.32 7 -4 7 C-4.33 7.99 -4.66 8.98 -5 10 C-5.99 10 -6.98 10 -8 10 C-8 10.99 -8 11.98 -8 13 C-6.68 12.67 -5.36 12.34 -4 12 C-4.33 12.99 -4.66 13.98 -5 15 C-7.875 15.625 -7.875 15.625 -11 16 C-11.66 15.34 -12.32 14.68 -13 14 C-13.66 13.67 -14.32 13.34 -15 13 C-15 13.66 -15 14.32 -15 15 C-15.66 15 -16.32 15 -17 15 C-17.33 15.66 -17.66 16.32 -18 17 C-17.432833 11.05524958 -13.97213129 8.75413204 -9.65625 5.02734375 C-6.49943682 2.61795251 -3.75613221 1.22482572 0 0 Z " fill="#E0F1FA" transform="translate(48,16)"/>
<path d="M0 0 C-0.99 1.175625 -0.99 1.175625 -2 2.375 C-4.20201441 4.71512812 -4.20201441 4.71512812 -4 7 C-10.75 8.125 -10.75 8.125 -13 7 C-13 7.66 -13 8.32 -13 9 C-14.98 9.33 -16.96 9.66 -19 10 C-18.34 9.67 -17.68 9.34 -17 9 C-17 8.34 -17 7.68 -17 7 C-17.99 7 -18.98 7 -20 7 C-20.99 8.485 -20.99 8.485 -22 10 C-22.66 9.67 -23.32 9.34 -24 9 C-20.1493153 3.06352776 -15.47891631 1.76536159 -8.875 0.3125 C-5.89252458 -0.01168211 -2.99770525 -0.07137393 0 0 Z " fill="#E1F0F8" transform="translate(80,5)"/>
<path d="M0 0 C0.33 0 0.66 0 1 0 C2.23779677 13.30631523 -5.42622873 25.05776106 -12 36 C-12.75929472 33.01386614 -13.4118332 30.02485781 -14 27 C-13.01 27 -12.02 27 -11 27 C-11 26.34 -11 25.68 -11 25 C-10.01 25 -9.02 25 -8 25 C-8 24.01 -8 23.02 -8 22 C-7.34 22 -6.68 22 -6 22 C-5.9690625 20.1128125 -5.9690625 20.1128125 -5.9375 18.1875 C-5.92589844 17.47980469 -5.91429687 16.77210938 -5.90234375 16.04296875 C-5.91736783 13.79694539 -5.91736783 13.79694539 -7 11 C-6.34 11 -5.68 11 -5 11 C-3.13448574 7.41247258 -1.57464072 3.72187807 0 0 Z " fill="#2A3162" transform="translate(175,115)"/>
<path d="M0 0 C3.24203493 3.496829 3.51099772 6.45743575 3.9375 11.125 C4.54848946 16.89709471 5.76903445 21.85807871 8.1953125 27.14453125 C9 29 9 29 9 31 C7.35 31 5.7 31 4 31 C2.56663769 25.64878069 1.59015185 20.50808397 1 15 C0.34 16.32 -0.32 17.64 -1 19 C-1.02690104 16.20826945 -1.04679053 13.41679652 -1.0625 10.625 C-1.07087891 9.8309375 -1.07925781 9.036875 -1.08789062 8.21875 C-1.11328125 2.2265625 -1.11328125 2.2265625 0 0 Z " fill="#2E4787" transform="translate(24,101)"/>
<path d="M0 0 C0.5775 0.226875 1.155 0.45375 1.75 0.6875 C1.52183594 1.24179687 1.29367188 1.79609375 1.05859375 2.3671875 C0.77113281 3.09164062 0.48367187 3.81609375 0.1875 4.5625 C-0.10253906 5.28179687 -0.39257812 6.00109375 -0.69140625 6.7421875 C-1.5037118 8.74399404 -1.5037118 8.74399404 -0.25 10.6875 C1.73 10.3575 3.71 10.0275 5.75 9.6875 C6.08 10.6775 6.41 11.6675 6.75 12.6875 C0.81 12.6875 -5.13 12.6875 -11.25 12.6875 C-4.99390244 -0.69359756 -4.99390244 -0.69359756 0 0 Z " fill="#CAE7FA" transform="translate(26.25,37.3125)"/>
<path d="M0 0 C6.35812301 0.98586626 10.64087243 6.79852034 14.27587891 11.73144531 C22.24571948 23.22681858 22.24571948 23.22681858 23 28 C22.34 28.33 21.68 28.66 21 29 C20.5875 28.32195313 20.175 27.64390625 19.75 26.9453125 C14.72672491 18.84976648 9.35478938 11.16124239 2.5 4.5 C1.675 3.675 0.85 2.85 0 2 C0 1.34 0 0.68 0 0 Z " fill="#334061" transform="translate(145,23)"/>
<path d="M0 0 C0.33 0.99 0.66 1.98 1 3 C0.01 3.33 -0.98 3.66 -2 4 C-2 4.66 -2 5.32 -2 6 C-0.2365625 5.505 -0.2365625 5.505 1.5625 5 C5.5011676 4.0030467 8.95139129 3.83130797 13 4 C6.24594212 9.51761707 -1.52838748 10.40991673 -10 10 C-8.68 9.34 -7.36 8.68 -6 8 C-9.96 8 -13.92 8 -18 8 C-13.85284505 5.92642253 -10.03870089 4.94270374 -5.55859375 3.87890625 C-2.92458609 2.97409446 -1.75285777 2.1187742 0 0 Z " fill="#2FB9E1" transform="translate(111,143)"/>
<path d="M0 0 C0.33 0.99 0.66 1.98 1 3 C1.66 3.33 2.32 3.66 3 4 C2.01 4.495 2.01 4.495 1 5 C0.34 4.67 -0.32 4.34 -1 4 C-0.67 2.68 -0.34 1.36 0 0 Z M-6 1 C-5.01 1 -4.02 1 -3 1 C-2.34 2.98 -1.68 4.96 -1 7 C-0.34 6.34 0.32 5.68 1 5 C1 5.66 1 6.32 1 7 C6.32212148 7.79265639 11.6496441 8.42978066 17 9 C17 10.65 17 12.3 17 14 C15.9790625 13.566875 15.9790625 13.566875 14.9375 13.125 C11.67106907 11.87402645 8.37153877 10.92552045 5 10 C5 10.99 5 11.98 5 13 C-0.36170213 12.40425532 -0.36170213 12.40425532 -2.875 10.8125 C-4.49664405 8.19985125 -4.20031953 6.00479298 -4 3 C-4.66 3 -5.32 3 -6 3 C-6 2.34 -6 1.68 -6 1 Z " fill="#50C8EC" transform="translate(47,119)"/>
<path d="M0 0 C2.29688569 2.29688569 2.71851303 3.78928171 3.625 6.875 C3.88539062 7.73867187 4.14578125 8.60234375 4.4140625 9.4921875 C5 12 5 12 5 16 C5.99 16.33 6.98 16.66 8 17 C8 18.65 8 20.3 8 22 C8.66 22 9.32 22 10 22 C9.67 23.32 9.34 24.64 9 26 C6 25 6 25 4.68359375 22.48828125 C4.27238281 21.44027344 3.86117188 20.39226562 3.4375 19.3125 C3.02371094 18.27738281 2.60992187 17.24226563 2.18359375 16.17578125 C1.79300781 15.12777344 1.40242187 14.07976562 1 13 C0.61199219 11.95972656 0.22398438 10.91945313 -0.17578125 9.84765625 C-1.20946928 6.2762886 -0.72185181 3.60925907 0 0 Z " fill="#303764" transform="translate(5,116)"/>
<path d="M0 0 C-1.3125 1.5 -1.3125 1.5 -3 3 C-3.99 3 -4.98 3 -6 3 C-6 3.66 -6 4.32 -6 5 C-6.66 5 -7.32 5 -8 5 C-8 5.66 -8 6.32 -8 7 C-9.32 7 -10.64 7 -12 7 C-12 7.99 -12 8.98 -12 10 C-17.61 10.66 -23.22 11.32 -29 12 C-29 10 -29 10 -28.01171875 8.41796875 C-24.89025982 6.21779478 -21.50677548 6.42542545 -17.8125 6.3125 C-17.06291016 6.27833984 -16.31332031 6.24417969 -15.54101562 6.20898438 C-13.69453162 6.12665706 -11.84729006 6.06164719 -10 6 C-10 4.68 -10 3.36 -10 2 C-9.34 2 -8.68 2 -8 2 C-7.67 1.34 -7.34 0.68 -7 0 C-3.86650268 -1.04449911 -3.01031744 -0.93423645 0 0 Z " fill="#21C2F4" transform="translate(138,137)"/>
<path d="M0 0 C0 0.66 0 1.32 0 2 C1.093125 2.12375 2.18625 2.2475 3.3125 2.375 C7 3 7 3 10 5 C10 5.99 10 6.98 10 8 C11.010625 8.12375 12.02125 8.2475 13.0625 8.375 C16.87937612 8.98085335 20.31500112 9.87193912 24 11 C21 13 21 13 17.1875 12.5625 C12.74462718 11.44995195 8.71402642 9.58824166 4.625 7.5625 C4.01809326 7.262229 3.41118652 6.96195801 2.78588867 6.65258789 C-0.24063942 5.09554388 -2.78213939 3.60877849 -5 1 C-3 0 -3 0 0 0 Z " fill="#373D6A" transform="translate(47,174)"/>
<path d="M0 0 C0.33 0 0.66 0 1 0 C2.72241879 11.22761879 -1.80903673 19.03967665 -8 28 C-8.99 28.66 -9.98 29.32 -11 30 C-10.835 29.236875 -10.67 28.47375 -10.5 27.6875 C-9.90854604 24.96403764 -9.90854604 24.96403764 -10 22 C-9.34 22 -8.68 22 -8 22 C-8.66 20.68 -9.32 19.36 -10 18 C-9.34 17.67 -8.68 17.34 -8 17 C-7.34 17.33 -6.68 17.66 -6 18 C-5.01 15.03 -4.02 12.06 -3 9 C-2.34 9 -1.68 9 -1 9 C-0.67 6.03 -0.34 3.06 0 0 Z " fill="#79C9F7" transform="translate(175,82)"/>
<path d="M0 0 C4.43909781 1.39514503 6.98024981 3.47695811 10 7 C10.8125 9.3125 10.8125 9.3125 11 11 C10.01 11.66 9.02 12.32 8 13 C8.66 13 9.32 13 10 13 C10.33 13.99 10.66 14.98 11 16 C10.34 16.33 9.68 16.66 9 17 C5.7457985 14.16569547 4.4793247 12.31392226 4 8 C3.38125 7.9175 2.7625 7.835 2.125 7.75 C0 7 0 7 -1.25 4.9375 C-1.62125 3.9784375 -1.62125 3.9784375 -2 3 C-1.34 2.01 -0.68 1.02 0 0 Z " fill="#D3E4F3" transform="translate(141,23)"/>
<path d="M0 0 C0.99 0 1.98 0 3 0 C1.04766762 4.21703793 -1.63859175 7.80278854 -4.34375 11.5625 C-6.19925154 14.17719481 -6.19925154 14.17719481 -8 18 C-4.04 18.33 -0.08 18.66 4 19 C4 19.33 4 19.66 4 20 C-1.28 20.33 -6.56 20.66 -12 21 C-12 13.23992852 -5.32386355 5.47174865 0 0 Z " fill="#33405B" transform="translate(24,31)"/>
<path d="M0 0 C0 2 0 2 -1.5 3.625 C-1.995 4.07875 -2.49 4.5325 -3 5 C-1.02 4.01 0.96 3.02 3 2 C3.309375 2.639375 3.61875 3.27875 3.9375 3.9375 C7.09768575 7.09768575 10.68333908 6.81900793 15 7 C15 7.33 15 7.66 15 8 C7.74 8 0.48 8 -7 8 C-7 5.12862585 -6.72886734 2.7696959 -6 0 C-3.50907189 -1.24546405 -2.58919267 -0.7767578 0 0 Z " fill="#47C7F0" transform="translate(76,128)"/>
<path d="M0 0 C6.75 0.75 6.75 0.75 9 3 C9.99 3.33 10.98 3.66 12 4 C12 4.66 12 5.32 12 6 C12.66 6.33 13.32 6.66 14 7 C13.67 8.32 13.34 9.64 13 11 C7.52067211 9.45454854 2.88570819 6.84456788 -2 4 C-1.34 2.68 -0.68 1.36 0 0 Z " fill="#C6E2F7" transform="translate(50,52)"/>
<path d="M0 0 C0.33 0 0.66 0 1 0 C1.33 1.98 1.66 3.96 2 6 C2.66 6 3.32 6 4 6 C4.14695312 6.54527344 4.29390625 7.09054688 4.4453125 7.65234375 C6.30233582 13.89578423 9.17010495 18.75713396 13 24 C10.94681193 22.97770134 8.90217363 21.94820957 6.875 20.875 C5.04279198 19.85903818 5.04279198 19.85903818 3 20 C0.55833216 13.16914355 -0.41640288 7.2484945 0 0 Z " fill="#6BB3DA" transform="translate(27,106)"/>
<path d="M0 0 C1.7074998 1.28062485 3.37373596 2.61767557 5 4 C5 4.66 5 5.32 5 6 C5.721875 6.2475 6.44375 6.495 7.1875 6.75 C10 8 10 8 12.3046875 9.9140625 C15.11101937 12.08591934 17.65079426 13.3137017 20.9375 14.625 C21.93652344 15.02976563 22.93554688 15.43453125 23.96484375 15.8515625 C26.95369706 16.98247997 29.96099926 18.01266444 33 19 C33 19.33 33 19.66 33 20 C27.43607238 20.45041319 23.4013488 18.91990145 18.375 16.8125 C17.62476562 16.52052734 16.87453125 16.22855469 16.1015625 15.92773438 C11.43588078 14.00438154 8.99826871 12.18772273 6 8 C5.01 7.67 4.02 7.34 3 7 C0 2.66666667 0 2.66666667 0 0 Z " fill="#48BBDC" transform="translate(39,130)"/>
<path d="M0 0 C0.99 0.33 1.98 0.66 3 1 C-12.9375 16 -12.9375 16 -20 16 C-20 16.66 -20 17.32 -20 18 C-20.66 18 -21.32 18 -22 18 C-22 17.01 -22 16.02 -22 15 C-20.68 15 -19.36 15 -18 15 C-18 14.34 -18 13.68 -18 13 C-17.34 13 -16.68 13 -16 13 C-16 12.34 -16 11.68 -16 11 C-15.01 11 -14.02 11 -13 11 C-12.67 10.01 -12.34 9.02 -12 8 C-11.34 8 -10.68 8 -10 8 C-9.67 6.68 -9.34 5.36 -9 4 C-7.35 4 -5.7 4 -4 4 C-3.67 3.34 -3.34 2.68 -3 2 C-2.01 2 -1.02 2 0 2 C0 1.34 0 0.68 0 0 Z " fill="#42B3EA" transform="translate(148,129)"/>
<path d="M0 0 C1.32 0 2.64 0 4 0 C3.73828125 1.89453125 3.73828125 1.89453125 3 4 C1.29296875 5.01171875 1.29296875 5.01171875 -0.8125 5.6875 C-1.49957031 5.91824219 -2.18664062 6.14898437 -2.89453125 6.38671875 C-3.93673828 6.69029297 -3.93673828 6.69029297 -5 7 C-5.58257568 7.17563477 -6.16515137 7.35126953 -6.76538086 7.53222656 C-9.50968764 8.10669305 -12.05537893 8.11196235 -14.859375 8.09765625 C-15.97441406 8.09443359 -17.08945313 8.09121094 -18.23828125 8.08789062 C-19.39714844 8.07951172 -20.55601563 8.07113281 -21.75 8.0625 C-22.92433594 8.05798828 -24.09867188 8.05347656 -25.30859375 8.04882812 C-28.20578072 8.03705094 -31.10286454 8.02060326 -34 8 C-29.79442464 5.60703114 -26.08261068 5.93271459 -21.375 6.125 C-14.23618125 6.28399055 -8.25832953 5.82763904 -2 2 C-1.34 1.34 -0.68 0.68 0 0 Z " fill="#7AECFB" transform="translate(106,142)"/>
<path d="M0 0 C0.66 0.66 1.32 1.32 2 2 C1.34 2.66 0.68 3.32 0 4 C-0.433125 5.0209375 -0.433125 5.0209375 -0.875 6.0625 C-2 8 -2 8 -3.9375 8.75 C-6 9 -6 9 -9 9 C-9.33 10.32 -9.66 11.64 -10 13 C-9.34 13.33 -8.68 13.66 -8 14 C-11.96 14 -15.92 14 -20 14 C-16.03456912 11.02592684 -11.95883979 8.43059998 -7.75390625 5.81640625 C-5.02924251 4.01928761 -2.51546114 2.07719568 0 0 Z " fill="#144989" transform="translate(148,132)"/>
<path d="M0 0 C-1.2065625 0.8971875 -1.2065625 0.8971875 -2.4375 1.8125 C-5.22327984 3.80947276 -5.22327984 3.80947276 -6 7 C-8.83079807 9.62859821 -11.20051686 10.47229401 -15 11 C-15.33 10.01 -15.66 9.02 -16 8 C-14.68 8 -13.36 8 -12 8 C-12.0825 7.236875 -12.165 6.47375 -12.25 5.6875 C-12 3 -12 3 -10.3125 1.25 C-6.54377909 -0.78714644 -4.09636473 -1.36545491 0 0 Z " fill="#BDE3F4" transform="translate(154,57)"/>
<path d="M0 0 C2 2 2 2 2.125 5.625 C2.08375 6.73875 2.0425 7.8525 2 9 C1.01 9.33 0.02 9.66 -1 10 C-1.2475 10.763125 -1.495 11.52625 -1.75 12.3125 C-3.58593958 16.2597701 -6.15582557 17.07791278 -10 19 C-8.05657711 15.03132589 -5.95916091 11.14583435 -3.875 7.25 C-3.50246094 6.55261719 -3.12992188 5.85523437 -2.74609375 5.13671875 C-1.83120092 3.42422705 -0.91566431 1.71207932 0 0 Z " fill="#254685" transform="translate(175,94)"/>
<path d="M0 0 C0.33 0 0.66 0 1 0 C1.33 3.63 1.66 7.26 2 11 C2.99 11.33 3.98 11.66 5 12 C4.75 13.875 4.75 13.875 4 16 C2 17.125 2 17.125 0 18 C-0.33 18.66 -0.66 19.32 -1 20 C-2.98 20 -4.96 20 -7 20 C-7.33 18.02 -7.66 16.04 -8 14 C-7.01 14.495 -7.01 14.495 -6 15 C-6 15.66 -6 16.32 -6 17 C-4.68 17 -3.36 17 -2 17 C-1.34 11.39 -0.68 5.78 0 0 Z " fill="#78BCE8" transform="translate(86,100)"/>
<path d="M0 0 C0 0.66 0 1.32 0 2 C-6.625 5 -6.625 5 -10 5 C-10.33 5.99 -10.66 6.98 -11 8 C-13.39582429 9.7159282 -14.62526214 10.03520265 -17.578125 9.7578125 C-18.90070313 9.44457031 -18.90070313 9.44457031 -20.25 9.125 C-21.14203125 8.92132813 -22.0340625 8.71765625 -22.953125 8.5078125 C-23.96632813 8.25644531 -23.96632813 8.25644531 -25 8 C-20.40753002 5.42821681 -15.35931822 4.36862867 -10.3125 3 C-7.11443726 2.13673569 -7.11443726 2.13673569 -4.75 0.875 C-3 0 -3 0 0 0 Z " fill="#104685" transform="translate(127,147)"/>
<path d="M0 0 C0.33 0 0.66 0 1 0 C1.0544452 2.20805524 1.09299283 4.41650554 1.125 6.625 C1.14820312 7.85476562 1.17140625 9.08453125 1.1953125 10.3515625 C1.0030428 13.94316041 0.30258556 16.66661175 -1 20 C-2.32 20 -3.64 20 -5 20 C-5.99 18.02 -6.98 16.04 -8 14 C-7.34 13.67 -6.68 13.34 -6 13 C-6 13.66 -6 14.32 -6 15 C-5.34 14.67 -4.68 14.34 -4 14 C-3.67 13.01 -3.34 12.02 -3 11 C-2.67 10.4225 -2.34 9.845 -2 9.25 C-0.6575667 6.22952507 -0.37686744 3.26618446 0 0 Z " fill="#213B75" transform="translate(85,97)"/>
<path d="M0 0 C3.00999152 -0.42999879 5.14448529 -0.57226998 7.734375 1.16015625 C10.44685315 3.68534424 11.88587413 5.12503497 12.375 8.875 C12.25125 9.57625 12.1275 10.2775 12 11 C11.34 11 10.68 11 10 11 C10 10.34 10 9.68 10 9 C9.01 9 8.02 9 7 9 C7 8.01 7 7.02 7 6 C6.34 6 5.68 6 5 6 C4.67 6.99 4.34 7.98 4 9 C2.68 6.03 1.36 3.06 0 0 Z " fill="#9ED5F7" transform="translate(41,91)"/>
<path d="M0 0 C-0.66 0.66 -1.32 1.32 -2 2 C-2.33 2.66 -2.66 3.32 -3 4 C-3.66 4 -4.32 4 -5 4 C-5 4.66 -5 5.32 -5 6 C-11.27 6 -17.54 6 -24 6 C-24 5.67 -24 5.34 -24 5 C-23.16597656 4.81824219 -22.33195312 4.63648438 -21.47265625 4.44921875 C-15.40567677 3.09405151 -9.52572203 1.65537531 -3.70703125 -0.546875 C-2 -1 -2 -1 0 0 Z " fill="#E1E3F0" transform="translate(124,184)"/>
<path d="M0 0 C7.625 0.875 7.625 0.875 11 2 C10.34 3.65 9.68 5.3 9 7 C8.0925 6.79375 7.185 6.5875 6.25 6.375 C2.88972103 5.9872755 1.75924185 6.19588033 -1 8 C-0.67 5.36 -0.34 2.72 0 0 Z " fill="#E4F5FB" transform="translate(105,6)"/>
<path d="M0 0 C0.58007812 0.21398437 1.16015625 0.42796875 1.7578125 0.6484375 C1.17773438 0.97714844 0.59765625 1.30585937 0 1.64453125 C-7.83025914 6.41246132 -12.01960509 12.11983569 -15.2421875 20.6484375 C-15.9021875 20.6484375 -16.5621875 20.6484375 -17.2421875 20.6484375 C-16.88686659 13.71967984 -13.10341397 8.38335262 -8.20703125 3.703125 C-3.01205816 -0.47227393 -3.01205816 -0.47227393 0 0 Z " fill="#C8CDE7" transform="translate(35.2421875,80.3515625)"/>
<path d="M0 0 C6.6 0 13.2 0 20 0 C20 0.99 20 1.98 20 3 C18.576875 3.2165625 18.576875 3.2165625 17.125 3.4375 C14.1065506 3.82935399 14.1065506 3.82935399 12 5 C12 4.34 12 3.68 12 3 C11.01 3 10.02 3 9 3 C9 2.34 9 1.68 9 1 C8.01 1 7.02 1 6 1 C5.67 1.99 5.34 2.98 5 4 C4.34 3.34 3.68 2.68 3 2 C2.01 2.99 1.02 3.98 0 5 C0 3.35 0 1.7 0 0 Z " fill="#1F2E66" transform="translate(11,51)"/>
<path d="M0 0 C-1.41677459 3.01064601 -3.09031959 5.65370541 -5 8.375 C-7.33316002 11.81783368 -8.95695684 14.93213166 -10 19 C-10.66 19 -11.32 19 -12 19 C-12.125 11.375 -12.125 11.375 -11 8 C-9.68946944 6.97029741 -8.35113205 5.97581759 -7 5 C-6.13375 4.113125 -5.2675 3.22625 -4.375 2.3125 C-2 0 -2 0 0 0 Z " fill="#2B3261" transform="translate(28,82)"/>
<path d="M0 0 C0 0.66 0 1.32 0 2 C-3.96 3.32 -7.92 4.64 -12 6 C-12 7.32 -12 8.64 -12 10 C-15.3 9.34 -18.6 8.68 -22 8 C-18.71023192 6.90341064 -17.28696233 7.20046862 -14 8 C-14 7.34 -14 6.68 -14 6 C-15.32 5.67 -16.64 5.34 -18 5 C-17.67 4.34 -17.34 3.68 -17 3 C-14.12890625 2.40234375 -14.12890625 2.40234375 -10.5625 1.9375 C-7.05490136 1.47161698 -3.3887799 0 0 0 Z " fill="#56C2D8" transform="translate(92,139)"/>
<path d="M0 0 C0.99 0 1.98 0 3 0 C3 0.66 3 1.32 3 2 C3.99 1.67 4.98 1.34 6 1 C5.67 3.31 5.34 5.62 5 8 C2.69 8.33 0.38 8.66 -2 9 C-1.67 7.35 -1.34 5.7 -1 4 C-1.66 3.67 -2.32 3.34 -3 3 C-2.34 3 -1.68 3 -1 3 C-0.67 2.01 -0.34 1.02 0 0 Z M6 0 C8 1 8 1 8 1 Z " fill="#8ED7F8" transform="translate(131,95)"/>
<path d="M0 0 C0.33 0 0.66 0 1 0 C1.20496094 1.16917969 1.40992187 2.33835937 1.62109375 3.54296875 C1.89319855 5.09115122 2.16533567 6.639328 2.4375 8.1875 C2.57220703 8.95642578 2.70691406 9.72535156 2.84570312 10.51757812 C3.52089704 14.35465574 4.21232777 18.18399568 5 22 C3.35 22 1.7 22 0 22 C0 14.74 0 7.48 0 0 Z " fill="#E4E7F3" transform="translate(0,103)"/>
<path d="M0 0 C-3.15627197 2.70213212 -5.91384889 3.72852136 -9.9375 4.6875 C-11.46697266 5.06455078 -11.46697266 5.06455078 -13.02734375 5.44921875 C-15.77173428 5.95770635 -18.21883996 6.10755868 -21 6 C-20.34 5.67 -19.68 5.34 -19 5 C-19 4.34 -19 3.68 -19 3 C-12.93426773 0.156688 -6.60198255 -0.16504956 0 0 Z " fill="#323B57" transform="translate(82,2)"/>
<path d="M0 0 C7.26 0.33 14.52 0.66 22 1 C22 1.66 22 2.32 22 3 C21.03578125 3.06058594 20.0715625 3.12117187 19.078125 3.18359375 C17.81484375 3.26738281 16.5515625 3.35117188 15.25 3.4375 C13.99703125 3.51871094 12.7440625 3.59992188 11.453125 3.68359375 C8.81682447 3.92515522 6.51962706 4.24283934 4 5 C2.68 3.35 1.36 1.7 0 0 Z " fill="#BDFCFE" transform="translate(66,138)"/>
<path d="M0 0 C-0.33 0.99 -0.66 1.98 -1 3 C-4.0625 4.1875 -4.0625 4.1875 -7 5 C-7 4.34 -7 3.68 -7 3 C-10.27773504 3.75150023 -10.27773504 3.75150023 -12 7 C-12.33 7.99 -12.66 8.98 -13 10 C-13.99 10 -14.98 10 -16 10 C-16.33 9.01 -16.66 8.02 -17 7 C-15.70982586 6.01886757 -14.41780894 5.04015801 -13.125 4.0625 C-12.04605469 3.24458984 -12.04605469 3.24458984 -10.9453125 2.41015625 C-7.22218988 -0.28873384 -4.56086138 -0.0844604 0 0 Z " fill="#96CBE1" transform="translate(141,92)"/>
<path d="M0 0 C-3.88232925 2.5882195 -6.72514539 3.13053468 -11.328125 3.09765625 C-12.12734375 3.09443359 -12.9265625 3.09121094 -13.75 3.08789062 C-14.575 3.07951172 -15.4 3.07113281 -16.25 3.0625 C-17.09046875 3.05798828 -17.9309375 3.05347656 -18.796875 3.04882812 C-20.86461401 3.03707961 -22.93231624 3.01914522 -25 3 C-24.67 2.34 -24.34 1.68 -24 1 C-16.14857712 -0.6023312 -7.9769909 -0.08712733 0 0 Z " fill="#1EB9EA" transform="translate(108,150)"/>
<path d="M0 0 C0.66 1.32 1.32 2.64 2 4 C0.04310341 4.22142255 -1.91561952 4.4267568 -3.875 4.625 C-5.51082031 4.79902344 -5.51082031 4.79902344 -7.1796875 4.9765625 C-8.57574219 4.98816406 -8.57574219 4.98816406 -10 5 C-10.66 4.34 -11.32 3.68 -12 3 C-4.71428571 -0.42857143 -4.71428571 -0.42857143 0 0 Z " fill="#28C3F7" transform="translate(96,142)"/>
<path d="M0 0 C2.34211663 2.89399469 3.86862171 5.67155428 5.25 9.125 C5.60578125 9.99382813 5.9615625 10.86265625 6.328125 11.7578125 C7 14 7 14 6 16 C5.01 16 4.02 16 3 16 C2.35366725 14.22934889 1.7079517 12.45847247 1.0625 10.6875 C0.70285156 9.70136719 0.34320313 8.71523438 -0.02734375 7.69921875 C-0.70885965 5.8079437 -1.3642811 3.90715671 -2 2 C-1.34 1.34 -0.68 0.68 0 0 Z " fill="#3C4A69" transform="translate(168,50)"/>
<path d="M0 0 C0.33 0.99 0.66 1.98 1 3 C1.66 3.33 2.32 3.66 3 4 C2.01 4.495 2.01 4.495 1 5 C0.34 4.67 -0.32 4.34 -1 4 C-0.67 2.68 -0.34 1.36 0 0 Z M-6 1 C-5.01 1 -4.02 1 -3 1 C-2.34 2.98 -1.68 4.96 -1 7 C-0.34 6.34 0.32 5.68 1 5 C1 5.66 1 6.32 1 7 C1.66 7 2.32 7 3 7 C3 7.66 3 8.32 3 9 C2.34 9 1.68 9 1 9 C1.33 9.99 1.66 10.98 2 12 C-0.86724686 11.42655063 -1.8614515 11.1385485 -4 9 C-4.125 5.875 -4.125 5.875 -4 3 C-4.66 3 -5.32 3 -6 3 C-6 2.34 -6 1.68 -6 1 Z " fill="#5EC6EA" transform="translate(47,119)"/>
<path d="M0 0 C0.33 0.66 0.66 1.32 1 2 C0.0625 4.625 0.0625 4.625 -1 7 C-1.66 7 -2.32 7 -3 7 C-3.0825 7.61875 -3.165 8.2375 -3.25 8.875 C-4 11 -4 11 -6.0625 12.25 C-6.701875 12.4975 -7.34125 12.745 -8 13 C-8 13.66 -8 14.32 -8 15 C-9.65 15.33 -11.3 15.66 -13 16 C-12.154375 15.030625 -11.30875 14.06125 -10.4375 13.0625 C-6.80214054 8.82847752 -3.39403181 4.42830778 0 0 Z " fill="#184884" transform="translate(162,116)"/>
<path d="M0 0 C0 0.99 0 1.98 0 3 C-0.969375 3.45375 -1.93875 3.9075 -2.9375 4.375 C-6.07079582 5.65786221 -6.07079582 5.65786221 -7 8 C-5.68 7.01 -4.36 6.02 -3 5 C-2.34 5.33 -1.68 5.66 -1 6 C-1.33 6.99 -1.66 7.98 -2 9 C-4.8125 9.625 -4.8125 9.625 -8 10 C-8.99 9.34 -9.98 8.68 -11 8 C-4.56521739 0 -4.56521739 0 0 0 Z " fill="#3C3F57" transform="translate(36,82)"/>
<path d="M0 0 C1.175625 0.5259375 1.175625 0.5259375 2.375 1.0625 C3.24125 1.371875 4.1075 1.68125 5 2 C5.66 1.67 6.32 1.34 7 1 C7 1.99 7 2.98 7 4 C6.01 4 5.02 4 4 4 C4 4.66 4 5.32 4 6 C3.01 6 2.02 6 1 6 C0.67 6.99 0.34 7.98 0 9 C-2 8 -4 7 -6 6 C-5.34 5.01 -4.68 4.02 -4 3 C-3.01 3.33 -2.02 3.66 -1 4 C-0.67 2.68 -0.34 1.36 0 0 Z " fill="#42C7F3" transform="translate(144,125)"/>
<path d="M0 0 C-1.3125 1.5 -1.3125 1.5 -3 3 C-3.99 3 -4.98 3 -6 3 C-6 3.66 -6 4.32 -6 5 C-6.66 5 -7.32 5 -8 5 C-8 5.66 -8 6.32 -8 7 C-9.32 7 -10.64 7 -12 7 C-12 7.99 -12 8.98 -12 10 C-13.32 9.67 -14.64 9.34 -16 9 C-15.34 9 -14.68 9 -14 9 C-13.67 8.01 -13.34 7.02 -13 6 C-12.01 6 -11.02 6 -10 6 C-10 4.68 -10 3.36 -10 2 C-9.34 2 -8.68 2 -8 2 C-7.67 1.34 -7.34 0.68 -7 0 C-3.86650268 -1.04449911 -3.01031744 -0.93423645 0 0 Z " fill="#2EBFF0" transform="translate(138,137)"/>
<path d="M0 0 C0.66 0.66 1.32 1.32 2 2 C1.625 5.625 1.625 5.625 1 9 C1.66 9.33 2.32 9.66 3 10 C2.40138258 12.35171131 1.73075648 14.6859378 1 17 C0.34 17.33 -0.32 17.66 -1 18 C-1.223293 15.93906592 -1.42802887 13.8761161 -1.625 11.8125 C-1.74101563 10.66394531 -1.85703125 9.51539062 -1.9765625 8.33203125 C-2.00023426 4.96669584 -1.47419799 2.98778294 0 0 Z " fill="#96D5FC" transform="translate(88,93)"/>
<path d="M0 0 C1.485 0.99 1.485 0.99 3 2 C3 2.66 3 3.32 3 4 C3.66 4 4.32 4 5 4 C5.33 5.98 5.66 7.96 6 10 C5.34 10 4.68 10 4 10 C3.34 9.34 2.68 8.68 2 8 C1.67 8.99 1.34 9.98 1 11 C0.34 10.67 -0.32 10.34 -1 10 C-1.125 2.25 -1.125 2.25 0 0 Z " fill="#8CD4F6" transform="translate(34,93)"/>
<path d="M0 0 C0.33 0 0.66 0 1 0 C1.4731614 7.88602342 1.17981006 13.20780865 -3 20 C-3.66 20 -4.32 20 -5 20 C-5.24042276 15.91281305 -4.42258812 12.82320557 -3 9 C-2.34 9 -1.68 9 -1 9 C-0.67 6.03 -0.34 3.06 0 0 Z " fill="#85C0EE" transform="translate(175,82)"/>
<path d="M0 0 C1.9375 0.3125 1.9375 0.3125 4 1 C4.33 1.99 4.66 2.98 5 4 C7.00016466 5.20882096 7.00016466 5.20882096 9 6 C8.67 6.33 8.34 6.66 8 7 C8.99 7.33 9.98 7.66 11 8 C10.34 9.32 9.68 10.64 9 12 C5.7 8.7 2.4 5.4 -1 2 C-0.67 1.34 -0.34 0.68 0 0 Z " fill="#323866" transform="translate(25,158)"/>
<path d="M0 0 C1.134375 0.020625 2.26875 0.04125 3.4375 0.0625 C2.4375 2.0625 2.4375 2.0625 -0.34765625 3.2109375 C-5.82415969 4.64129439 -11.4080427 4.0193669 -17 3.6875 C-18.11310547 3.63078125 -19.22621094 3.5740625 -20.37304688 3.515625 C-23.10359372 3.37499598 -25.83310157 3.22367115 -28.5625 3.0625 C-28.5625 2.7325 -28.5625 2.4025 -28.5625 2.0625 C-27.84070557 2.03744385 -27.11891113 2.0123877 -26.37524414 1.98657227 C-23.124965 1.87098698 -19.87500312 1.74809226 -16.625 1.625 C-15.48869141 1.58568359 -14.35238281 1.54636719 -13.18164062 1.50585938 C-11.56225586 1.44301758 -11.56225586 1.44301758 -9.91015625 1.37890625 C-8.90992432 1.34224854 -7.90969238 1.30559082 -6.87915039 1.26782227 C-3.5424995 0.97209844 -3.83360716 0.06725627 0 0 Z " fill="#123774" transform="translate(103.5625,154.9375)"/>
<path d="M0 0 C4.54805635 -0.17835515 7.8794254 0.00214565 12 2 C12 3.65 12 5.3 12 7 C11.01 6.67 10.02 6.34 9 6 C8.67 5.34 8.34 4.68 8 4 C5.87423218 3.53348793 5.87423218 3.53348793 3.4375 3.375 C2.61121094 3.30023438 1.78492188 3.22546875 0.93359375 3.1484375 C0.29550781 3.09945312 -0.34257812 3.05046875 -1 3 C-0.67 2.01 -0.34 1.02 0 0 Z " fill="#9ECBDF" transform="translate(135,87)"/>
<path d="M0 0 C2.62187494 1.04874998 3.79371361 1.64931313 5.25 4.125 C5.4975 4.74375 5.745 5.3625 6 6 C5.01 6 4.02 6 3 6 C3 5.34 3 4.68 3 4 C-0.0831351 5.19899698 -3.06279492 6.47700477 -6 8 C-4.73058503 4.08597051 -3.48832306 2.20927127 0 0 Z " fill="#48BEDF" transform="translate(107,138)"/>
<path d="M0 0 C3.20878901 3.90329402 3.94276458 7.12045189 5 12 C3.35 12.33 1.7 12.66 0 13 C-1.06671952 9.79984144 -0.94845472 8.11455706 -0.5625 4.8125 C-0.46066406 3.91144531 -0.35882813 3.01039062 -0.25390625 2.08203125 C-0.17011719 1.39496094 -0.08632812 0.70789063 0 0 Z " fill="#7EC7F0" transform="translate(74,106)"/>
<path d="M0 0 C1.26026798 2.52053595 0.91874445 3.8542098 0.5625 6.625 C0.46066406 7.44226563 0.35882813 8.25953125 0.25390625 9.1015625 C0.17011719 9.72804688 0.08632813 10.35453125 0 11 C-0.66 11 -1.32 11 -2 11 C-2 11.66 -2 12.32 -2 13 C-2.99 13 -3.98 13 -5 13 C-4.54996653 7.37458159 -3.31558515 4.38512875 0 0 Z " fill="#83B9E8" transform="translate(33,93)"/>
<path d="M0 0 C-1.1566677 3.47000311 -1.85726716 3.84701459 -4.875 5.6875 C-5.57367188 6.12449219 -6.27234375 6.56148437 -6.9921875 7.01171875 C-9 8 -9 8 -12 8 C-10.01351708 2.43784783 -5.71424233 0 0 0 Z " fill="#364057" transform="translate(50,12)"/>
<path d="M0 0 C2.34914492 2.34914492 2.73140357 3.95679446 3.625 7.125 C3.88539062 8.03507812 4.14578125 8.94515625 4.4140625 9.8828125 C4.70410156 10.93082031 4.70410156 10.93082031 5 12 C3.68 12 2.36 12 1 12 C-1.22923777 7.67265609 -0.92470553 4.71599818 0 0 Z " fill="#292F62" transform="translate(5,116)"/>
<path d="M0 0 C0.99 0 1.98 0 3 0 C2.67 7.92 2.34 15.84 2 24 C1.67 24 1.34 24 1 24 C0.93941406 23.03578125 0.87882813 22.0715625 0.81640625 21.078125 C0.73261719 19.81484375 0.64882813 18.5515625 0.5625 17.25 C0.48128906 15.99703125 0.40007813 14.7440625 0.31640625 13.453125 C0.10489844 10.17574756 0.10489844 10.17574756 -0.5625 7.75 C-1.23607465 5.05570139 -0.54829641 2.68056022 0 0 Z " fill="#363D6B" transform="translate(2,74)"/>
<path d="M0 0 C0.33 0.66 0.66 1.32 1 2 C1.66 2.33 2.32 2.66 3 3 C2.34 3.66 1.68 4.32 1 5 C-0.32 5 -1.64 5 -3 5 C-3.66 6.32 -4.32 7.64 -5 9 C-5.99 9 -6.98 9 -8 9 C-7.61479436 6.46089803 -7.29902057 5.27248877 -5.37109375 3.515625 C-4.73300781 3.09796875 -4.09492188 2.6803125 -3.4375 2.25 C-2.79683594 1.82203125 -2.15617188 1.3940625 -1.49609375 0.953125 C-1.00238281 0.63859375 -0.50867188 0.3240625 0 0 Z " fill="#EEF1F7" transform="translate(143,171)"/>
<path d="M0 0 C2.34560673 0.31274756 3.7800587 0.83708052 5.6875 2.25 C7.33095772 4.44127696 7.63692621 6.31325398 8 9 C2.25 7.375 2.25 7.375 0 4 C0.33 3.34 0.66 2.68 1 2 C0.34 1.67 -0.32 1.34 -1 1 C-0.67 0.67 -0.34 0.34 0 0 Z " fill="#30AEDF" transform="translate(44,139)"/>
<path d="M0 0 C0.66 0.66 1.32 1.32 2 2 C0.54601271 3.81598825 -0.91332325 5.62769519 -2.375 7.4375 C-3.59316406 8.95150391 -3.59316406 8.95150391 -4.8359375 10.49609375 C-7 13 -7 13 -9 14 C-9.3125 11.6875 -9.3125 11.6875 -9 9 C-7.36209288 7.95355934 -5.68991979 6.9601817 -4 6 C-1.70417137 2.93282876 -1.70417137 2.93282876 0 0 Z " fill="#5FB8EC" transform="translate(160,115)"/>
<path d="M0 0 C0.66 0.33 1.32 0.66 2 1 C1.71125 1.51949219 1.4225 2.03898437 1.125 2.57421875 C-1.76732832 7.96165468 -1.76732832 7.96165468 -2 14 C-3.32 13.34 -4.64 12.68 -6 12 C-5.39053099 8.44476411 -4.58244911 5.25281205 -3 2 C-2.01 1.34 -1.02 0.68 0 0 Z " fill="#1B3777" transform="translate(167,111)"/>
<path d="M0 0 C1.60597325 0.45196245 3.20972508 0.91182327 4.8125 1.375 C6.15248047 1.75785156 6.15248047 1.75785156 7.51953125 2.1484375 C10 3 10 3 13 5 C10.525 6.485 10.525 6.485 8 8 C6.6589523 7.24266726 5.32730219 6.46867264 4 5.6875 C2.88625 5.04361328 2.88625 5.04361328 1.75 4.38671875 C1.1725 3.92910156 0.595 3.47148438 0 3 C0 2.01 0 1.02 0 0 Z " fill="#AAD2E4" transform="translate(116,88)"/>
<path d="M0 0 C2.475 0.99 2.475 0.99 5 2 C5 3.65 5 5.3 5 7 C3.35 7.33 1.7 7.66 0 8 C0 7.34 0 6.68 0 6 C-0.66 5.67 -1.32 5.34 -2 5 C-1.34 3.35 -0.68 1.7 0 0 Z " fill="#DDF1F9" transform="translate(141,23)"/>
<path d="M0 0 C-3.01447835 2.57075841 -5.35979771 3.52207066 -9.25 4.1875 C-10.58804688 4.42533203 -10.58804688 4.42533203 -11.953125 4.66796875 C-12.96632813 4.83232422 -12.96632813 4.83232422 -14 5 C-14 4.34 -14 3.68 -14 3 C-13.34 3 -12.68 3 -12 3 C-12 2.34 -12 1.68 -12 1 C-7.9472484 0.01751476 -4.16138263 -0.08159574 0 0 Z " fill="#34AEE7" transform="translate(124,147)"/>
<path d="M0 0 C1.9375 0.3125 1.9375 0.3125 4 1 C4.33 1.99 4.66 2.98 5 4 C6.32303717 4.3721042 7.65737935 4.70630173 9 5 C9.33 5.66 9.66 6.32 10 7 C9.01 7 8.02 7 7 7 C7 7.99 7 8.98 7 10 C2.69016865 7.47354714 1.70057975 4.50653635 0 0 Z " fill="#3EBEEE" transform="translate(37,133)"/>
<path d="M0 0 C0.66 1.32 1.32 2.64 2 4 C2.78375 4.12375 3.5675 4.2475 4.375 4.375 C7 5 7 5 9.25 7.9375 C10.20278494 9.60487365 11.14117126 11.28234252 12 13 C9.94870759 11.97435379 7.90202112 10.94812883 5.875 9.875 C4.04279198 8.85903818 4.04279198 8.85903818 2 9 C1.34 6.03 0.68 3.06 0 0 Z " fill="#69C2E6" transform="translate(28,117)"/>
<path d="M0 0 C0.33 1.32 0.66 2.64 1 4 C-0.32 4 -1.64 4 -3 4 C-3 4.99 -3 5.98 -3 7 C-3.99 7.33 -4.98 7.66 -6 8 C-7.65 6.35 -9.3 4.7 -11 3 C-7.56484998 2.37542727 -4.50935186 2 -1 2 C-0.67 1.34 -0.34 0.68 0 0 Z " fill="#B0D2E5" transform="translate(141,61)"/>
<path d="M0 0 C0.33 1.32 0.66 2.64 1 4 C1.99 3.67 2.98 3.34 4 3 C4.33 3.66 4.66 4.32 5 5 C4.34 5.66 3.68 6.32 3 7 C2.83312552 9.58354218 2.83312552 9.58354218 3 12 C3.66 12 4.32 12 5 12 C4.67 13.32 4.34 14.64 4 16 C1.34493073 13.59384348 0.07835303 11.82040233 -0.265625 8.21875 C-0.25145444 5.46966145 -0.17296687 2.74344679 0 0 Z " fill="#75C9EA" transform="translate(38,110)"/>
<path d="M0 0 C-2.30587304 2.30587304 -3.77098633 2.68287595 -6.875 3.5625 C-7.73867187 3.81128906 -8.60234375 4.06007813 -9.4921875 4.31640625 C-11.65557569 4.90611487 -13.8217771 5.46810836 -16 6 C-16 5.34 -16 4.68 -16 4 C-10.45834744 0.22695996 -6.65545792 -0.54330269 0 0 Z " fill="#305364" transform="translate(116,90)"/>
<path d="M0 0 C0.928125 0.33 1.85625 0.66 2.8125 1 C5.92029291 2.14967004 5.92029291 2.14967004 9 2 C8.67 3.65 8.34 5.3 8 7 C7.67 6.34 7.34 5.68 7 5 C5.35 5.33 3.7 5.66 2 6 C2 5.34 2 4.68 2 4 C1.34 4 0.68 4 0 4 C-0.33 3.01 -0.66 2.02 -1 1 C-0.67 0.67 -0.34 0.34 0 0 Z " fill="#9DDAF8" transform="translate(115,97)"/>
<path d="M0 0 C0.33 0.66 0.66 1.32 1 2 C0.33613281 1.96519531 -0.32773437 1.93039063 -1.01171875 1.89453125 C-6.28058568 1.73300394 -9.62981867 1.722364 -14 5 C-14.66 5 -15.32 5 -16 5 C-15.04239706 2.38835563 -14.30921331 1.1967721 -11.9375 -0.3125 C-7.89518034 -1.25857481 -4.02750456 -1.03184001 0 0 Z " fill="#C4C8E4" transform="translate(45,85)"/>
<path d="M0 0 C2.97 0 5.94 0 9 0 C9 0.33 9 0.66 9 1 C6.69 1 4.38 1 2 1 C2 1.66 2 2.32 2 3 C2.99 3.33 3.98 3.66 5 4 C5 4.66 5 5.32 5 6 C2.03 5.67 -0.94 5.34 -4 5 C-4 4.34 -4 3.68 -4 3 C-2.68 2.34 -1.36 1.68 0 1 C0 0.67 0 0.34 0 0 Z " fill="#ABECF3" transform="translate(73,141)"/>
<path d="M0 0 C4.9306334 4.61252802 4.7770223 9.63398668 5 16 C3 15 3 15 2.1484375 12.63671875 C1.89320313 11.66347656 1.63796875 10.69023438 1.375 9.6875 C1.11460937 8.72199219 0.85421875 7.75648437 0.5859375 6.76171875 C0 4 0 4 0 0 Z " fill="#213854" transform="translate(172,63)"/>
<path d="M0 0 C0.66 0.99 1.32 1.98 2 3 C1.34 4.32 0.68 5.64 0 7 C-0.99 7 -1.98 7 -3 7 C-3.66 7.99 -4.32 8.98 -5 10 C-5 7.69 -5 5.38 -5 3 C-4.01 3 -3.02 3 -2 3 C-2 2.34 -2 1.68 -2 1 C-1.34 0.67 -0.68 0.34 0 0 Z " fill="#7ECCF3" transform="translate(33,103)"/>
<path d="M0 0 C0.99 0.99 1.98 1.98 3 3 C-2.69398894 5.09570426 -7.95198929 6.45018084 -14 7 C-11.57869669 4.57869669 -10.19888623 4.47159496 -6.875 3.875 C-5.50988281 3.62363281 -5.50988281 3.62363281 -4.1171875 3.3671875 C-3.06917969 3.18542969 -3.06917969 3.18542969 -2 3 C-2 2.34 -2 1.68 -2 1 C-1.34 0.67 -0.68 0.34 0 0 Z " fill="#38C3EB" transform="translate(94,138)"/>
<path d="M0 0 C-0.66 0 -1.32 0 -2 0 C-2 0.66 -2 1.32 -2 2 C-1.34 2.33 -0.68 2.66 0 3 C-3.63 3.33 -7.26 3.66 -11 4 C-7.39482939 0.00856111 -5.29679003 -1.76559668 0 0 Z " fill="#2F3867" transform="translate(111,185)"/>
<path d="M0 0 C0.70125 0.721875 1.4025 1.44375 2.125 2.1875 C4.92770745 4.99823813 7.92262792 7.49516226 11 10 C8 11 8 11 5.875 10.25 C4 9 4 9 3 6 C2.01 5.34 1.02 4.68 0 4 C0 2.68 0 1.36 0 0 Z " fill="#1C5893" transform="translate(33,132)"/>
<path d="M0 0 C1.7074998 1.28062485 3.37373596 2.61767557 5 4 C5 4.66 5 5.32 5 6 C5.763125 6.2475 6.52625 6.495 7.3125 6.75 C10.2364045 8.10995558 11.30004356 9.31585826 13 12 C7.04361207 9.78762734 2.87612519 7.90362539 0 2 C0 1.34 0 0.68 0 0 Z " fill="#56BBD4" transform="translate(39,130)"/>
<path d="M0 0 C0.36738281 0.48082031 0.73476562 0.96164063 1.11328125 1.45703125 C3.74840443 3.61204917 5.82505636 3.50672346 9.1875 3.6875 C10.27417969 3.75324219 11.36085938 3.81898437 12.48046875 3.88671875 C13.72763672 3.94279297 13.72763672 3.94279297 15 4 C15 4.33 15 4.66 15 5 C7.08 5.495 7.08 5.495 -1 6 C-1 2 -1 2 0 0 Z " fill="#506086" transform="translate(13,46)"/>
<path d="M0 0 C3.7726764 0.53895377 5.68212991 1.99535358 8 5 C7.60546875 7.13671875 7.60546875 7.13671875 7 9 C5.82737096 7.88121617 4.66204862 6.75476949 3.5 5.625 C2.8503125 4.99851562 2.200625 4.37203125 1.53125 3.7265625 C0 2 0 2 0 0 Z " fill="#313956" transform="translate(145,23)"/>
<path d="M0 0 C3.34249629 0.59687434 5.46436342 1.73603877 8 4 C8 4.66 8 5.32 8 6 C5.23723823 5.47731534 2.6739124 4.89130413 0 4 C0 2.68 0 1.36 0 0 Z " fill="#0E3A79" transform="translate(41,143)"/>
<path d="M0 0 C0.66 0 1.32 0 2 0 C1.27991594 4.60853797 -0.31295939 8.67237409 -2 13 C-3.4500578 8.45580479 -2.32826388 5.50133869 -1 1 C-0.67 0.67 -0.34 0.34 0 0 Z " fill="#383E62" transform="translate(173,123)"/>
<path d="M0 0 C1.32 1.32 2.64 2.64 4 4 C4.66 3.34 5.32 2.68 6 2 C6.33 3.65 6.66 5.3 7 7 C6.01 6.67 5.02 6.34 4 6 C3.67 6.99 3.34 7.98 3 9 C2.34 8.34 1.68 7.68 1 7 C0.34 7 -0.32 7 -1 7 C-0.67 4.69 -0.34 2.38 0 0 Z " fill="#2B3C79" transform="translate(77,86)"/>
<path d="M0 0 C0 0.66 0 1.32 0 2 C-2.90669462 2.85305168 -5.31048873 3.07289715 -8.328125 2.87890625 C-9.12734375 2.83056641 -9.9265625 2.78222656 -10.75 2.73242188 C-11.575 2.67634766 -12.4 2.62027344 -13.25 2.5625 C-14.09046875 2.51029297 -14.9309375 2.45808594 -15.796875 2.40429688 C-17.8649352 2.27504311 -19.9325222 2.13825726 -22 2 C-22 1.67 -22 1.34 -22 1 C-18.89590179 0.83204189 -15.79171114 0.66585677 -12.6875 0.5 C-11.80642578 0.45230469 -10.92535156 0.40460938 -10.01757812 0.35546875 C-8.74624023 0.28779297 -8.74624023 0.28779297 -7.44921875 0.21875 C-6.66893311 0.17685547 -5.88864746 0.13496094 -5.0847168 0.09179688 C-3.39117604 0.01722476 -1.69518179 0 0 0 Z " fill="#86DDEE" transform="translate(92,137)"/>
<path d="M0 0 C2 2 2 2 2.125 5.625 C2.08375 6.73875 2.0425 7.8525 2 9 C0.35 8.67 -1.3 8.34 -3 8 C-1.125 2.25 -1.125 2.25 0 0 Z " fill="#1F3E77" transform="translate(175,94)"/>
<path d="M0 0 C1.36119392 2.72238784 0.76129827 4.09322479 0 7 C-1.0625 9.3125 -1.0625 9.3125 -2 11 C-3.32 10.67 -4.64 10.34 -6 10 C-5.34 10 -4.68 10 -4 10 C-3.896875 9.278125 -3.79375 8.55625 -3.6875 7.8125 C-2.94013068 4.75508007 -1.71954811 2.61670365 0 0 Z " fill="#3F4471" transform="translate(24,91)"/>
<path d="M0 0 C1.20220203 3.53094302 0.79532349 6.12898982 0.0625 9.75 C-0.13214844 10.73484375 -0.32679688 11.7196875 -0.52734375 12.734375 C-0.68332031 13.48203125 -0.83929688 14.2296875 -1 15 C-1.33 15 -1.66 15 -2 15 C-2 10.38 -2 5.76 -2 1 C-1.34 0.67 -0.68 0.34 0 0 Z " fill="#E7EFF8" transform="translate(2,70)"/>
<path d="M0 0 C0 0.66 0 1.32 0 2 C-1.32 2.33 -2.64 2.66 -4 3 C-4.33 4.65 -4.66 6.3 -5 8 C-5.99 7.67 -6.98 7.34 -8 7 C-7.40138258 4.64828869 -6.73075648 2.3140622 -6 0 C-3.50907189 -1.24546405 -2.58919267 -0.7767578 0 0 Z " fill="#51C9FB" transform="translate(76,128)"/>
<path d="M0 0 C1 2 1 2 0.1875 5.5625 C-1 9 -1 9 -3 10 C-2.67 8.35 -2.34 6.7 -2 5 C-2.99 4.67 -3.98 4.34 -5 4 C-5 3.01 -5 2.02 -5 1 C-3.35 0.67 -1.7 0.34 0 0 Z " fill="#6AC4F0" transform="translate(165,106)"/>
<path d="M0 0 C0.66 0.99 1.32 1.98 2 3 C1.125 6.6875 1.125 6.6875 0 10 C-3.875 7.375 -3.875 7.375 -5 4 C-4.0409375 3.8453125 -4.0409375 3.8453125 -3.0625 3.6875 C-2.381875 3.460625 -1.70125 3.23375 -1 3 C-0.67 2.01 -0.34 1.02 0 0 Z " fill="#253B76" transform="translate(28,96)"/>
<path d="M0 0 C-4 2.66666667 -8 5.33333333 -12 8 C-11.60824727 5.56068635 -11.2627764 4.26829402 -9.51171875 2.48046875 C-8.90972656 2.05378906 -8.30773437 1.62710938 -7.6875 1.1875 C-7.09324219 0.74792969 -6.49898437 0.30835937 -5.88671875 -0.14453125 C-3.51795836 -1.21856546 -2.39906969 -0.86324141 0 0 Z " fill="#D3D8EE" transform="translate(37,81)"/>
<path d="M0 0 C0.33 0.66 0.66 1.32 1 2 C-1.63886654 6.2026393 -4.36440339 9.56638098 -8 13 C-8.66 12.67 -9.32 12.34 -10 12 C-9.44570312 11.38511719 -8.89140625 10.77023438 -8.3203125 10.13671875 C-7.59585938 9.32847656 -6.87140625 8.52023438 -6.125 7.6875 C-5.40570313 6.88699219 -4.68640625 6.08648437 -3.9453125 5.26171875 C-1.88394498 2.95810917 -1.88394498 2.95810917 0 0 Z " fill="#D8DDEB" transform="translate(160,153)"/>
<path d="M0 0 C3.68754757 0.49831724 5.60490662 1.10067643 8 4 C7.34 4 6.68 4 6 4 C6 4.66 6 5.32 6 6 C4 5 2 4 0 3 C0 2.01 0 1.02 0 0 Z " fill="#A0F0FA" transform="translate(53,130)"/>
<path d="M0 0 C0 1.65 0 3.3 0 5 C-1.8125 5.6875 -1.8125 5.6875 -4 6 C-5.75 4.5625 -5.75 4.5625 -7 3 C-2.5 0 -2.5 0 0 0 Z " fill="#90D3FA" transform="translate(74,106)"/>
<path d="M0 0 C0.99 0 1.98 0 3 0 C3.33 0.99 3.66 1.98 4 3 C-1.625 6 -1.625 6 -5 6 C-5.33 4.68 -5.66 3.36 -6 2 C-3.525 2.495 -3.525 2.495 -1 3 C-0.67 2.01 -0.34 1.02 0 0 Z " fill="#81B0DE" transform="translate(70,103)"/>
<path d="M0 0 C0.33 1.32 0.66 2.64 1 4 C-2.07322544 4.91058531 -4.80097361 5.08886184 -8 5 C-5.47211993 2.20127563 -3.79588866 0.54226981 0 0 Z " fill="#D7E5EF" transform="translate(48,16)"/>
<path d="M0 0 C2.475 0.495 2.475 0.495 5 1 C4.50168276 4.68754757 3.89932357 6.60490662 1 9 C1.020625 7.88625 1.04125 6.7725 1.0625 5.625 C1.26380718 2.16784079 1.26380718 2.16784079 0 0 Z " fill="#343E6B" transform="translate(161,142)"/>
<path d="M0 0 C0.66 0.66 1.32 1.32 2 2 C1.34 2.66 0.68 3.32 0 4 C-0.69748583 5.31747324 -1.36959957 6.64914193 -2 8 C-2.99 8 -3.98 8 -5 8 C-3.375 2.25 -3.375 2.25 0 0 Z " fill="#173D7B" transform="translate(148,132)"/>
<path d="M0 0 C3.36720387 1.39332574 4.9859524 2.9789286 7 6 C6.67 6.66 6.34 7.32 6 8 C5.195625 7.505 4.39125 7.01 3.5625 6.5 C1.35103815 4.91580347 1.35103815 4.91580347 0 5 C0 3.35 0 1.7 0 0 Z " fill="#92BBEA" transform="translate(56,96)"/>
<path d="M0 0 C0.99 0 1.98 0 3 0 C3 0.66 3 1.32 3 2 C3.99 1.67 4.98 1.34 6 1 C5.67 1.99 5.34 2.98 5 4 C2.125 4.625 2.125 4.625 -1 5 C-1.66 4.34 -2.32 3.68 -3 3 C-2.34 3 -1.68 3 -1 3 C-0.67 2.01 -0.34 1.02 0 0 Z M6 0 C8 1 8 1 8 1 Z " fill="#A0DBF4" transform="translate(131,95)"/>
<path d="M0 0 C-0.33 1.65 -0.66 3.3 -1 5 C-2.8125 5.6875 -2.8125 5.6875 -5 6 C-6.75 4.5625 -6.75 4.5625 -8 3 C-5.53387212 -0.1151089 -3.89156016 -0.31553191 0 0 Z " fill="#C2E6FA" transform="translate(134,65)"/>
<path d="M0 0 C1.32 0.33 2.64 0.66 4 1 C3.67 1.66 3.34 2.32 3 3 C3.66 3.33 4.32 3.66 5 4 C2.45297384 5.27351308 1.5717055 4.80191925 -1.125 4.0625 C-1.84945312 3.86785156 -2.57390625 3.67320313 -3.3203125 3.47265625 C-3.87460938 3.31667969 -4.42890625 3.16070312 -5 3 C-5 2.67 -5 2.34 -5 2 C-3.35 2 -1.7 2 0 2 C0 1.34 0 0.68 0 0 Z " fill="#E1E7EE" transform="translate(113,0)"/>
<path d="M0 0 C2.9375 1.25 2.9375 1.25 6 3 C6.33 4.32 6.66 5.64 7 7 C2.545 5.02 2.545 5.02 -2 3 C-1.34 2.67 -0.68 2.34 0 2 C0 1.34 0 0.68 0 0 Z " fill="#9FCCE3" transform="translate(116,94)"/>
<path d="M0 0 C0.99 0.66 1.98 1.32 3 2 C1.68 4.97 0.36 7.94 -1 11 C-2.18294089 6.26823643 -2.30699037 4.18142005 0 0 Z " fill="#ECEEF8" transform="translate(8,49)"/>
<path d="M0 0 C0.99 0.33 1.98 0.66 3 1 C-0.96 4.465 -0.96 4.465 -5 8 C-5.66 7.01 -6.32 6.02 -7 5 C-6.01 4.67 -5.02 4.34 -4 4 C-3.67 3.34 -3.34 2.68 -3 2 C-2.01 2 -1.02 2 0 2 C0 1.34 0 0.68 0 0 Z " fill="#4CAEE2" transform="translate(148,129)"/>
<path d="M0 0 C1.79068573 2.6860286 2.66055791 4.6626589 3.625 7.6875 C3.88539062 8.49574219 4.14578125 9.30398437 4.4140625 10.13671875 C4.60742188 10.75160156 4.80078125 11.36648437 5 12 C4.01 11.67 3.02 11.34 2 11 C0.60955102 7.12137916 0 4.13537997 0 0 Z " fill="#1D528D" transform="translate(28,120)"/>
<path d="M0 0 C0.33 0.66 0.66 1.32 1 2 C1.66 2 2.32 2 3 2 C3 2.66 3 3.32 3 4 C3.99 4 4.98 4 6 4 C6 4.99 6 5.98 6 7 C4.68 7 3.36 7 2 7 C1.01 5.02 0.02 3.04 -1 1 C-0.67 0.67 -0.34 0.34 0 0 Z " fill="#174277" transform="translate(78,110)"/>
<path d="M0 0 C0 0.33 0 0.66 0 1 C-1.98 1.33 -3.96 1.66 -6 2 C-5.67 2.66 -5.34 3.32 -5 4 C-7.31 3.67 -9.62 3.34 -12 3 C-8.2391768 -0.7608232 -5.0273023 -0.25136512 0 0 Z " fill="#9ECADF" transform="translate(114,93)"/>
<path d="M0 0 C0.5775 0.37125 1.155 0.7425 1.75 1.125 C4 2.29166667 4 2.29166667 6.25 1.125 C7.11625 0.568125 7.11625 0.568125 8 0 C7.67 1.32 7.34 2.64 7 4 C4.1875 4.625 4.1875 4.625 1 5 C0.01 4.34 -0.98 3.68 -2 3 C-1.34 2.01 -0.68 1.02 0 0 Z " fill="#454975" transform="translate(27,87)"/>
<path d="M0 0 C5.625 -0.25 5.625 -0.25 9 2 C9 2.66 9 3.32 9 4 C4.545 3.01 4.545 3.01 0 2 C0 1.34 0 0.68 0 0 Z " fill="#1E335E" transform="translate(39,87)"/>
<path d="M0 0 C0.33 0 0.66 0 1 0 C0.67 3.3 0.34 6.6 0 10 C-0.99 10 -1.98 10 -3 10 C-4 7 -4 7 -3.22265625 5.17578125 C-2.1484375 3.45052083 -1.07421875 1.72526042 0 0 Z " fill="#24295E" transform="translate(177,104)"/>
<path d="M0 0 C0.66 0.66 1.32 1.32 2 2 C1.7578125 4.1640625 1.7578125 4.1640625 1.125 6.625 C0.92132813 7.44226563 0.71765625 8.25953125 0.5078125 9.1015625 C0.34023437 9.72804688 0.17265625 10.35453125 0 11 C-1.95881942 7.72079119 -2.05559492 7.23826396 -1.125 3.25 C-0.75375 2.1775 -0.3825 1.105 0 0 Z " fill="#A3D8F8" transform="translate(88,93)"/>
<path d="M0 0 C2 3 2 3 2 5 C2.66 5 3.32 5 4 5 C4.33 5.99 4.66 6.98 5 8 C4.01 8.495 4.01 8.495 3 9 C0.9375 7.3125 0.9375 7.3125 -1 5 C-0.75 2.25 -0.75 2.25 0 0 Z " fill="#D7F1FA" transform="translate(147,31)"/>
<path d="M0 0 C2.91517292 1.07401108 4.77810176 1.77810176 7 4 C6.67 4.66 6.34 5.32 6 6 C4.02 5.34 2.04 4.68 0 4 C0 2.68 0 1.36 0 0 Z " fill="#454E6D" transform="translate(120,6)"/>
<path d="M0 0 C0.66 0.99 1.32 1.98 2 3 C0.35 4.98 -1.3 6.96 -3 9 C-4.125 5.25 -4.125 5.25 -3 3 C-2.01 3 -1.02 3 0 3 C0 2.01 0 1.02 0 0 Z " fill="#303661" transform="translate(160,149)"/>
<path d="M0 0 C2 2 2 2 2.125 5.125 C2.08375 6.07375 2.0425 7.0225 2 8 C1.34 8 0.68 8 0 8 C-0.33 9.32 -0.66 10.64 -1 12 C-0.67 8.04 -0.34 4.08 0 0 Z " fill="#14316E" transform="translate(25,103)"/>
<path d="M0 0 C3.465 1.485 3.465 1.485 7 3 C6.525625 3.45375 6.05125 3.9075 5.5625 4.375 C3.90972192 5.93258204 3.90972192 5.93258204 3 8 C1 5 1 5 1 3 C0.34 2.34 -0.32 1.68 -1 1 C-0.67 0.67 -0.34 0.34 0 0 Z " fill="#364A81" transform="translate(46,86)"/>
<path d="M0 0 C0.66666667 2.66666667 1.33333333 5.33333333 2 8 C1.34 8 0.68 8 0 8 C0 8.99 0 9.98 0 11 C-0.66 11 -1.32 11 -2 11 C-1.125 3.375 -1.125 3.375 0 0 Z " fill="#4B5276" transform="translate(5,63)"/>
<path d="M0 0 C1.98 0.495 1.98 0.495 4 1 C3.67 2.32 3.34 3.64 3 5 C1.68 5 0.36 5 -1 5 C-0.67 3.35 -0.34 1.7 0 0 Z " fill="#C8E8F4" transform="translate(141,52)"/>
<path d="M0 0 C0.99 0.33 1.98 0.66 3 1 C3.33 2.65 3.66 4.3 4 6 C2.02 5.34 0.04 4.68 -2 4 C-1.34 2.68 -0.68 1.36 0 0 Z " fill="#BCD4EF" transform="translate(50,52)"/>
<path d="M0 0 C0.33 0.66 0.66 1.32 1 2 C1.66 2.33 2.32 2.66 3 3 C2.01 3.33 1.02 3.66 0 4 C-0.33 4.66 -0.66 5.32 -1 6 C-1.66 6 -2.32 6 -3 6 C-3 6.99 -3 7.98 -3 9 C-3.66 9 -4.32 9 -5 9 C-3.7508258 5.54074837 -2.32472205 2.85306797 0 0 Z " fill="#AFC7E1" transform="translate(22,38)"/>
<path d="M0 0 C0.66 0.99 1.32 1.98 2 3 C-1.71888239 2.49287967 -4.73454239 1.88391785 -8 0 C-4.71303767 -0.79953138 -3.28976808 -1.09658936 0 0 Z " fill="#29A4D7" transform="translate(64,150)"/>
<path d="M0 0 C1.32 0.33 2.64 0.66 4 1 C4 2.65 4 4.3 4 6 C3.01 5.67 2.02 5.34 1 5 C0.67 3.35 0.34 1.7 0 0 Z " fill="#8EC9E3" transform="translate(143,88)"/>
<path d="M0 0 C0.33 0.66 0.66 1.32 1 2 C1.66 2 2.32 2 3 2 C3.33 3.65 3.66 5.3 4 7 C3.01 7.495 3.01 7.495 2 8 C0.93224776 6.03533587 -0.06553465 4.03144641 -1 2 C-0.67 1.34 -0.34 0.68 0 0 Z " fill="#1B3367" transform="translate(78,83)"/>
<path d="M0 0 C1.67542976 0.28604898 3.34385343 0.61781233 5 1 C5 1.66 5 2.32 5 3 C4.34 3 3.68 3 3 3 C2.67 3.99 2.34 4.98 2 6 C1.01 4.35 0.02 2.7 -1 1 C-0.67 0.67 -0.34 0.34 0 0 Z " fill="#EAECF3" transform="translate(160,34)"/>
<path d="M0 0 C0.66 0.33 1.32 0.66 2 1 C2.33 1.99 2.66 2.98 3 4 C2.34 4.66 1.68 5.32 1 6 C-0.32 5.34 -1.64 4.68 -3 4 C-2.01 2.68 -1.02 1.36 0 0 Z " fill="#D0DEEC" transform="translate(37,22)"/>
<path d="M0 0 C2.625 1.4375 2.625 1.4375 5 3 C4.01 3.495 4.01 3.495 3 4 C2.67 4.66 2.34 5.32 2 6 C0.68 4.35 -0.64 2.7 -2 1 C-1.34 0.67 -0.68 0.34 0 0 Z " fill="#424C67" transform="translate(142,19)"/>
<path d="M0 0 C1.32 0.66 2.64 1.32 4 2 C4 2.33 4 2.66 4 3 C1.03 3.66 -1.94 4.32 -5 5 C-3.35 3.35 -1.7 1.7 0 0 Z " fill="#3FC0EE" transform="translate(107,138)"/>
<path d="M0 0 C2.875 0.25 2.875 0.25 6 1 C7.375 3.0625 7.375 3.0625 8 5 C6.68 5 5.36 5 4 5 C1.75 2.5 1.75 2.5 0 0 Z " fill="#CCFBFD" transform="translate(66,138)"/>
<path d="M0 0 C4.70491803 2.40983607 4.70491803 2.40983607 6 5 C3.36 4.34 0.72 3.68 -2 3 C-2 2.34 -2 1.68 -2 1 C-1.34 0.67 -0.68 0.34 0 0 Z " fill="#5BB5CF" transform="translate(56,135)"/>
<path d="M0 0 C0.99 0.66 1.98 1.32 3 2 C2.34 2 1.68 2 1 2 C1.33 3.32 1.66 4.64 2 6 C0.35 6.33 -1.3 6.66 -3 7 C-3.33 6.01 -3.66 5.02 -4 4 C-2.68 4 -1.36 4 0 4 C0 2.68 0 1.36 0 0 Z " fill="#C4E8FC" transform="translate(142,61)"/>
<path d="M0 0 C0.97110486 3.02121511 1.13617383 5.00463263 0 8 C-0.99 8.495 -0.99 8.495 -2 9 C-1.125 1.125 -1.125 1.125 0 0 Z " fill="#C4E9FB" transform="translate(161,45)"/>
<path d="M0 0 C1.65 0 3.3 0 5 0 C5 0.99 5 1.98 5 3 C3.35 3.33 1.7 3.66 0 4 C-0.33 3.34 -0.66 2.68 -1 2 C-0.67 1.34 -0.34 0.68 0 0 Z " fill="#323767" transform="translate(115,182)"/>
<path d="M0 0 C0 0.66 0 1.32 0 2 C-3.13498292 3.85776765 -5.37471432 4.20140476 -9 4 C-3.7826087 0 -3.7826087 0 0 0 Z " fill="#0D4D90" transform="translate(127,147)"/>
<path d="M0 0 C6.64615385 1.47692308 6.64615385 1.47692308 8.4375 4.125 C8.7159375 5.053125 8.7159375 5.053125 9 6 C5.06326356 4.68775452 2.77280706 3.08089673 0 0 Z " fill="#71C6E3" transform="translate(55,138)"/>
<path d="M0 0 C1.35432675 1.31200404 2.68733482 2.64631404 4 4 C4 4.33 4 4.66 4 5 C2.35 5 0.7 5 -1 5 C-0.67 3.35 -0.34 1.7 0 0 Z " fill="#43CBFC" transform="translate(78,130)"/>
<path d="M0 0 C2.12508244 3.18762365 2.5020163 5.26512223 3 9 C2.34 9 1.68 9 1 9 C0.29925156 5.846632 0 3.27275026 0 0 Z " fill="#D6DAE8" transform="translate(5,126)"/>
<path d="M0 0 C0.99 0.33 1.98 0.66 3 1 C2.34 1 1.68 1 1 1 C1.33 3.31 1.66 5.62 2 8 C1.34 8 0.68 8 0 8 C-1.125 5.6875 -1.125 5.6875 -2 3 C-1.34 2.01 -0.68 1.02 0 0 Z " fill="#244D7B" transform="translate(55,95)"/>
<path d="M0 0 C0.99 0.99 1.98 1.98 3 3 C1.02 3.99 -0.96 4.98 -3 6 C-2.625 3.5625 -2.625 3.5625 -2 1 C-1.34 0.67 -0.68 0.34 0 0 Z " fill="#ACD3E8" transform="translate(104,88)"/>
<path d="M0 0 C3 1 3 1 6 3 C5.67 4.32 5.34 5.64 5 7 C0 1.125 0 1.125 0 0 Z " fill="#C7E3FD" transform="translate(66,65)"/>
<path d="M0 0 C0.66 0 1.32 0 2 0 C2.66 2.31 3.32 4.62 4 7 C2.66666667 7 1.33333333 7 0 7 C0 4.69 0 2.38 0 0 Z " fill="#4A5874" transform="translate(171,59)"/>
<path d="M0 0 C0.66 0.33 1.32 0.66 2 1 C2 3.31 2 5.62 2 8 C1.01 7.67 0.02 7.34 -1 7 C-1.04254356 5.00045254 -1.04080783 2.99958364 -1 1 C-0.67 0.67 -0.34 0.34 0 0 Z " fill="#C9E7F9" transform="translate(157,39)"/>
</svg>
